
<svg version="1.1" id="Layer_1" xmlns="http://www.w3.org/2000/svg" xmlns:xlink="http://www.w3.org/1999/xlink" x="0px" y="0px"
	 viewBox="0 0 130.6 132.2" enable-background="new 0 0 130.6 132.2" xml:space="preserve">
    <style>
        
/*
    .tongue {
        transform-origin: 0px 0px;
        -webkit-transform-origin: 50% 50%;
        -webkit-animation: pant 0.25s cubic-bezier(.49,.05,.32,1.04) infinite;
        animation: pant 0.25s cubic-bezier(.49,.05,.32,1.04) infinite;
    }
*/
    
    .eye-right {
        transform-origin: 80px 42px;
        -webkit-transform-origin: 50% 50%;
        -webkit-animation: blink 5s infinite;
        animation: blink 5s infinite;
        -webkit-animation-delay: 2s;
        animation-delay: 2s;
    }
    
    .eye-left {
        transform-origin: 77px 42px;
        -webkit-transform-origin: 50% 50%;
        -webkit-animation: blink 5s infinite;
        animation: blink 5s infinite;
        -webkit-animation-delay: 2s;
        animation-delay: 2s;
    }
    
/*
    @-webkit-keyframes pant {
        50% {
            -webkit-transform: translate(-50%, 10%);
        } 
    }

    
    @keyframes pant {
        50% {
            transform: translate(-50%, 10%);
        }        
    }
*/
    
    @-webkit-keyframes blink {
        0% {
            -webkit-transform: scale(1, 1);
        }
        5% {
            -webkit-transform: scale(0.25, 1);
        }
        10% {
            -webkit-transform: scale(1, 1);
        }
        100% {
            -webkit-transform: scale(1, 1);
        }
    }
    
    @keyframes blink {
        0% {
            transform: scale(1, 1);
        }
        5% {
            transform: scale(0.25, 1);
        }        
        10% {
            transform: scale(1, 1);
        }
        100% {
            transform: scale(1, 1);
        }
    }
    
    </style>
<g>
	<ellipse opacity="0.15" fill="#010101" cx="60.4" cy="126.4" rx="60.4" ry="5.9"/>
</g>
<g class="tongue">
    <path class="tongue-pink" fill="#C9355C" d="M98.4,13.3c0,0,3,1.2,4.1,1.2c1.1,0,1.9-1.4,2-1.8c0.1-0.3,0-1.6,0-1.6l-0.8-0.9l-4.9-1.1l-1.9,1l2,1.7
		L98.4,13.3z"/>
    <path class="tongue-outline" d="M99.8,10.1c1.5,0.3,3.5,0.7,3.9,1c1.3,0.8,0.5,2.9-0.9,3.1c-0.7,0.1-1.8-0.4-2.7-1c0,0.8,0,0.9,0,1.6
			c1.2,0.6,3.1,1.3,3.9,0.7c1.2-0.9,3.1-3.9,1.2-4.9c-1-0.5-2.9-1.2-4.4-1.7c0.1,0,0.2,0.1,0.3,0.2C101,9.1,100.9,9,100.8,9
			c0,0,0,0,0,0C100.3,8.9,100.1,9.7,99.8,10.1z"/>
    <path class="tongue-line" d="M100.4,12.3c0.1,0,0.3,0.1,0.4,0.1c0.1,0,0.1-0.1,0.2-0.2c-0.1,0.1-0.2,0.1-0.2,0.2c0.3,0,0.5,0,0.5-0.1
			c0.2-0.4-1.7-1.6-1.7-1.6L99.5,11C99.9,11,100.1,11.9,100.4,12.3z"/>
</g>
<g>
	<g>
		<path fill="#FFFFFF" d="M89.4,6.4C90.2,7.1,91.2,7,92.1,7c0.9,0,1.4-0.5,1.7-1.4C94,4.8,94.2,4.1,94.5,3c1.3,0.5,2.5,1,3.8,1.5
			c-0.5,0.6-1,1.2-1.5,1.7c0.2,0.3,0.3,0.7,0.6,1c0.2,0.3,0.5,0.6,0.9,1c-0.3,0.1-0.4,0.2-0.6,0.2c-1.6,0.7-1.5,1.6-0.5,2.7
			c0.3,0.3,0.6,0.7,0.9,1c-1.6,1.5-1.6,1.5-1,3.1c-1.5,1.1-3,2.3-5.1,1.6c-0.9-0.3-1.8-0.5-2.7-0.9c-1.7-0.7-2.1-1.1-1.7-3.2
			c0.3-1.5,0.8-2.9,1.2-4.4C89.1,7.8,89.3,7.1,89.4,6.4z"/>
		<path fill="#FFFFFF" d="M97.8,15.5l-0.3,0.2c-1.5,1.1-3.2,2.4-5.5,1.7c-0.3-0.1-0.6-0.2-0.8-0.3c-0.6-0.2-1.3-0.4-1.9-0.6
			c-1.9-0.8-2.4-1.4-2-3.8c0.2-1,0.5-2,0.8-3c0.1-0.5,0.3-0.9,0.4-1.4c0.1-0.4,0.2-0.8,0.3-1.3l0.4-1.6L89.8,6
			c0.6,0.6,1.3,0.5,2.1,0.5l0.2,0c0.7,0,1-0.3,1.2-1c0.2-0.5,0.3-1.1,0.5-1.7l0.5-1.5l4.9,1.9l-1.7,2c0,0,0,0,0,0
			c0.1,0.2,0.2,0.4,0.4,0.6c0.2,0.2,0.3,0.4,0.5,0.6l0.8,0.9l-0.9,0.4c-0.1,0-0.2,0.1-0.3,0.1c-0.6,0.3-0.8,0.5-0.9,0.6
			c-0.1,0.1-0.3,0.4,0.5,1.3c0.2,0.2,0.4,0.5,0.6,0.7l0.6,0.7l-0.4,0.3c-0.6,0.6-1,0.9-1.1,1.2c-0.1,0.2-0.1,0.4,0.3,1.4L97.8,15.5z
			 M89.8,7.2c-0.1,0.5-0.2,0.9-0.3,1.3C89.3,9,89.1,9.5,89,10c-0.3,0.9-0.6,1.9-0.8,2.9c-0.3,1.9-0.1,2.1,1.4,2.7
			c0.6,0.2,1.2,0.4,1.8,0.6c0.3,0.1,0.6,0.2,0.9,0.3c1.7,0.6,3-0.3,4.3-1.3c-0.5-1.2-0.5-1.6,0.9-3c-0.2-0.2-0.4-0.4-0.6-0.7
			c-1.3-1.4-1.2-2.6,0.6-3.5c-0.2-0.2-0.3-0.3-0.4-0.5c-0.2-0.2-0.3-0.5-0.4-0.8l-0.3-0.6l1.2-1.5l-2.6-1l-0.1,0.4
			c-0.2,0.6-0.4,1.1-0.5,1.7c-0.3,1.1-1,1.7-2.1,1.7l-0.2,0C91.2,7.5,90.5,7.6,89.8,7.2z"/>
	</g>
	<g>
		<path fill="#FFFFFF" d="M59.3,7.2c-0.3-0.4-0.5-1-0.1-1.4c2.1-0.3,4.1,0.4,6.1,1c-1,1.4-1.8,2.7-2.8,4.1
			C60.8,10.3,60.3,8.9,59.3,7.2z"/>
		<path fill="#FFFFFF" d="M66.1,6.5l-3.4,5l-0.4-0.1c-1.6-0.5-2.2-1.6-3-2.9c-0.2-0.3-0.4-0.6-0.6-0.9c-0.2-0.3-0.7-1.2,0-2l0.1-0.1
			l0.2,0C61,5,62.7,5.5,64.3,6c0.4,0.1,0.7,0.2,1.1,0.3L66.1,6.5z M62.4,10.3l2.2-3.2c-0.1,0-0.3-0.1-0.4-0.1
			c-1.5-0.5-3-0.9-4.6-0.7c-0.1,0.1-0.1,0.3,0.2,0.7c0.2,0.3,0.4,0.7,0.6,1C60.9,9,61.4,9.8,62.4,10.3z"/>
	</g>
	<g>
		<path fill="#FFFFFF" d="M65.8,33.9c-0.6,0.3-1.1,0.7-1.7,1.1c-0.1-1.1-0.2-2-0.2-3c0-0.6-0.2-0.9-0.6-1.2c-0.5-0.2-1-0.4-1.5-0.4
			c-1.2-0.1-2.5-0.2-3.7,0c-1.4,0.2-2.6-0.3-3.9-0.7c0.1-1,0.3-1.5,1.2-2c1.3-0.7,2.6-1.2,4-1.6c0.9-0.3,1.3-0.6,1.3-1.5
			c0.2-1.9,0.3-3.8,0.6-5.7c0.1-0.8,0.5-1.7,0.8-2.5c0.9-2.7,2-5.3,4.1-7.3c0.7-0.7,1.5-1.3,2.3-1.9c2.3-1.4,5-1.5,7.6-1.7
			c1.5-0.1,2.9,0.1,4.3,0.3c2.1,0.3,4,0.9,5.6,2.3c0.5,0.5,0.8,0.8,0.6,1.5c-0.3,1.3-0.7,2.7-0.9,4.1c-0.3,1.6,0.3,2.6,1.5,3.5
			c1.7,1.2,3.6,2.2,5.8,2c1.4-0.1,2.8-0.1,3.9-1.1c0.6-0.5,1.3-0.8,2-1.2c1.2,1.4,1.9,2.8,2.1,4.5c-0.4,0.1-0.6,0.2-0.9,0.3
			c-1,0.4-1.2,0.7-0.9,1.7c0.2,0.6,0.5,1.2,0.8,1.8c0.2,0.6,1.3,0.9,0.9,1.6c-0.3,0.5-1,0.7-1.6,1c-0.7,0.4-1,0.8-0.8,1.7
			c0.2,0.9,0.6,1.8,1,2.7c-0.7,0.2-1.5,0.3-2.3,0.5c-1.5,0.4-2.8,1.5-2.1,3.5c0.1,0.2,0,0.4,0,0.6c-0.8-0.2-1.5-0.4-2.2-0.6
			c-1.1-0.2-1.6,0-2.2,0.9c-0.4,0.6-0.6,1.3-1,1.9c-0.1,0-0.2,0-0.2-0.1c-1.9-2.3-2.2-1.3-3.4,0.5c-0.4,0.6-0.6,1.2-1.3,1.5
			c-0.1-0.1-0.2-0.1-0.3-0.1c-0.2-0.1-0.3-0.3-0.4-0.5c-1.3-1.4-2-1.4-3.2,0.2c-0.6,0.7-1.2,1.4-1.7,2.1c-0.7-0.3-0.5-0.8-0.6-1.3
			c-0.1-0.8-0.6-1.4-1.3-1.8c-0.6-0.4-1.1,0.2-1.5,0.5c-0.6,0.4-1.1,0.9-1.8,1.4c0-0.4,0-0.7,0-0.9c0-0.2-0.1-0.4-0.1-0.7
			c-0.1-1.3-0.3-1.4-1.5-1.2c-0.8,0.2-1.5,0.5-2.4,0.8c0.1-0.9,0.2-1.7,0.4-2.5c-0.8-0.4-1.5-0.7-2.3-0.2c-0.3,0.2-0.8,0.2-1.3,0.3
			c0.2-0.8,0.5-1.4,0.6-1.9C67.3,34,66.7,33.5,65.8,33.9z"/>
		<path fill="#FFFFFF" d="M100.2,32.3l-1.3,0.3c-0.5,0.1-1.1,0.2-1.6,0.4c-1.5,0.4-2.2,1.4-1.8,2.8c0.1,0.2,0.1,0.4,0.1,0.6
			c0,0.1,0,0.1,0,0.2l0,0.7l-1.4-0.4c-0.5-0.1-1-0.3-1.5-0.4c-0.9-0.2-1.2-0.1-1.7,0.7c0,0,0,0,0,0c-0.3,0.4-0.4,0.8-0.6,1.3
			c-0.1,0.2-0.2,0.4-0.3,0.6l-0.2,0.4l-0.4-0.1c-0.1,0-0.3-0.1-0.5-0.2c-0.8-1-1.2-1.2-1.3-1.2c-0.2,0-0.6,0.6-1,1.2l-0.3,0.4
			c-0.1,0.1-0.1,0.2-0.2,0.3l-0.2,0.3c-0.3,0.4-0.6,0.9-1.1,1.2l-0.2,0.1l-0.3-0.1c-0.1,0-0.2-0.1-0.3-0.2c-0.1-0.1-0.2-0.2-0.3-0.3
			l-0.1-0.1c-0.6-0.6-1-0.9-1.3-0.9c-0.3,0-0.6,0.3-1.2,1c-0.4,0.5-0.8,1-1.2,1.5l-0.8,0.9l-0.3-0.2c-0.8-0.4-0.8-1-0.9-1.4
			c0-0.1,0-0.2,0-0.3c-0.1-0.6-0.5-1.1-1.1-1.5c-0.2-0.1-0.3-0.1-0.7,0.3c-0.1,0.1-0.2,0.1-0.2,0.2c-0.4,0.3-0.8,0.6-1.2,0.9
			l-1.4,1.1l0-1.4c0-0.2,0-0.3,0-0.5c0-0.1,0-0.2,0-0.3c0-0.1,0-0.2,0-0.3c-0.1-0.6-0.1-0.8-0.2-0.8c0,0-0.2,0-0.8,0.1
			c-0.5,0.1-1,0.3-1.5,0.5c-0.3,0.1-0.5,0.2-0.8,0.3l-0.8,0.2l0.4-2.9c-0.7-0.3-1.1-0.3-1.5,0c-0.3,0.2-0.6,0.2-1,0.3
			c-0.2,0-0.3,0.1-0.5,0.1l-0.8,0.2l0.3-0.8c0.1-0.3,0.2-0.5,0.2-0.7c0.1-0.4,0.3-0.8,0.3-1.1c0-0.3,0-0.5-0.1-0.6
			c-0.1-0.1-0.3-0.1-0.6,0c-0.4,0.2-0.7,0.4-1.1,0.6c-0.2,0.1-0.4,0.3-0.6,0.4l-0.7,0.5L63.6,35c0-0.3,0-0.6-0.1-0.9
			c-0.1-0.7-0.1-1.4-0.1-2.2c0-0.4-0.2-0.6-0.4-0.7c-0.4-0.2-0.9-0.4-1.3-0.4l-0.6,0c-1-0.1-2-0.1-3,0c-1.3,0.2-2.4-0.2-3.4-0.5
			c-0.2-0.1-0.5-0.1-0.7-0.2L53.7,30l0-0.4c0.1-1.2,0.4-1.8,1.5-2.4c1.1-0.6,2.4-1.1,4-1.6c0.6-0.2,0.7-0.3,0.8-0.5
			c0.1-0.1,0.1-0.3,0.2-0.6l0.1-0.8c0.1-1.6,0.3-3.3,0.5-5c0.1-0.6,0.3-1.2,0.5-1.8c0.1-0.3,0.2-0.5,0.3-0.8c0.7-2,1.3-3.5,2-4.7
			c0.6-1.1,1.3-2,2.2-2.8c0.8-0.8,1.6-1.4,2.4-1.9c2.2-1.3,4.6-1.5,6.9-1.7l0.9-0.1c1.5-0.1,2.9,0.1,4.4,0.3c1.7,0.3,4,0.8,5.9,2.4
			c0.6,0.5,1,1.1,0.8,2c-0.1,0.4-0.2,0.9-0.3,1.3c-0.2,0.9-0.5,1.8-0.6,2.7c-0.2,1.3,0.1,2.2,1.3,3c1.5,1,3.3,2.1,5.5,1.9l0.2,0
			c1.3-0.1,2.4-0.1,3.4-1c0.4-0.4,0.9-0.7,1.4-0.9c0.2-0.1,0.4-0.2,0.6-0.4l0.4-0.2l0.3,0.3c1.3,1.5,2,3,2.2,4.8l0.1,0.4l-0.7,0.2
			c-0.2,0.1-0.3,0.1-0.5,0.2c-0.2,0.1-0.6,0.3-0.7,0.4c-0.1,0.1,0,0.3,0.1,0.7c0.1,0.3,0.3,0.7,0.4,1c0.1,0.2,0.2,0.5,0.3,0.7
			c0,0.1,0.2,0.3,0.4,0.4c0.3,0.3,0.9,0.8,0.5,1.6c0,0,0,0,0,0c-0.3,0.5-0.8,0.8-1.3,1c-0.2,0.1-0.3,0.1-0.5,0.2
			c-0.3,0.2-0.5,0.3-0.5,0.4c-0.1,0.1-0.1,0.3,0,0.7c0.2,0.6,0.4,1.2,0.6,1.8c0.1,0.3,0.2,0.6,0.4,0.9L100.2,32.3z M94.7,33.5
			c0.4-0.8,1.3-1.3,2.3-1.6c0.5-0.1,1.1-0.2,1.6-0.4l0.1,0c0-0.1-0.1-0.2-0.1-0.3c-0.3-0.7-0.5-1.3-0.7-1.9
			c-0.1-0.4-0.2-0.9,0.1-1.5c0.2-0.3,0.4-0.5,0.9-0.8c0.2-0.1,0.3-0.2,0.5-0.3c0.3-0.2,0.7-0.4,0.9-0.6c0-0.1-0.2-0.3-0.3-0.4
			c-0.2-0.2-0.5-0.4-0.6-0.8c-0.1-0.2-0.2-0.4-0.3-0.7c-0.2-0.4-0.4-0.8-0.5-1.2c-0.2-0.6-0.2-1.1,0-1.5c0.2-0.4,0.6-0.6,1.1-0.8
			c0.2-0.1,0.3-0.1,0.5-0.2c-0.2-1.3-0.8-2.4-1.7-3.5c-0.1,0.1-0.2,0.1-0.3,0.2c-0.5,0.3-0.9,0.5-1.2,0.8c-1.2,1.1-2.6,1.2-4,1.3
			l-0.2,0c-2.5,0.1-4.5-1-6.1-2.1c-1.4-1-2-2.2-1.7-3.9c0.2-0.9,0.4-1.9,0.6-2.8c0.1-0.4,0.2-0.9,0.3-1.3c0.1-0.5,0-0.7-0.4-1
			c-1.7-1.4-3.8-1.9-5.4-2.1c-1.4-0.2-2.8-0.4-4.2-0.3l-0.9,0.1c-2.3,0.2-4.5,0.4-6.5,1.6c-0.7,0.4-1.5,1.1-2.2,1.8
			c-0.8,0.7-1.4,1.6-2,2.6c-0.7,1.2-1.3,2.6-1.9,4.5c-0.1,0.3-0.2,0.5-0.3,0.8c-0.2,0.5-0.4,1.1-0.5,1.6c-0.2,1.6-0.4,3.3-0.5,4.9
			l-0.1,0.8c-0.1,1.3-0.9,1.7-1.7,2c-1.6,0.5-2.8,1-3.9,1.6c-0.7,0.3-0.8,0.6-0.9,1.2c0.1,0,0.2,0.1,0.3,0.1c1,0.3,1.9,0.6,3,0.4
			c1.1-0.2,2.2-0.1,3.2,0l0.6,0c0.5,0,1.1,0.2,1.7,0.5c0.6,0.3,0.9,0.9,0.9,1.6c0,0.7,0,1.3,0.1,2c0,0,0,0.1,0,0.1
			c0.4-0.2,0.7-0.5,1.1-0.6c0.6-0.3,1.2-0.2,1.6,0.1c0.4,0.3,0.6,0.9,0.5,1.6c-0.1,0.4-0.2,0.8-0.3,1.2c0.1,0,0.3-0.1,0.3-0.1
			c1.1-0.7,2-0.3,2.8,0.2l0.3,0.2l-0.3,2c0,0,0,0,0,0c0.6-0.2,1.1-0.4,1.6-0.5c0.6-0.1,1.2-0.2,1.6,0.1c0.4,0.3,0.5,0.9,0.6,1.5
			c0,0.1,0,0.2,0,0.3c0,0.1,0,0.2,0,0.3c0.4-0.3,0.7-0.6,1.1-0.8c0.1,0,0.1-0.1,0.2-0.2c0.4-0.3,1.1-0.9,1.9-0.4
			c0.8,0.5,1.4,1.3,1.5,2.2c0,0.1,0,0.3,0,0.4c0,0.1,0,0.2,0,0.2l0.2-0.2c0.4-0.5,0.8-1,1.2-1.5c0.5-0.7,1.1-1.4,1.9-1.4
			c0.8,0,1.4,0.5,2,1.2l0.1,0.2c0.1,0.1,0.1,0.2,0.2,0.2c0.2-0.1,0.3-0.4,0.5-0.7l0.2-0.3c0.1-0.1,0.1-0.2,0.2-0.3l0.3-0.4
			c0.6-0.9,1.1-1.6,1.8-1.7c0.5,0,1.1,0.3,1.8,1.1c0,0,0,0,0,0c0.2-0.4,0.4-0.9,0.7-1.3c0.7-1.2,1.5-1.5,2.8-1.2
			c0.5,0.1,1,0.2,1.5,0.4l0,0C94.3,35,94.3,34.2,94.7,33.5z"/>
	</g>
	<g>
		<path fill="#FFFFFF" d="M120.4,8.9c0.1,0.3,0.2,0.6,0.2,0.8c0,0.2,0,0.4,0,0.6c-1,0.6-1.9,1.1-2.9,1.7c0.3,0.4,0.6,0.5,1,0.4
			c0.3-0.1,0.7-0.2,1.1-0.3l-4.4,6c0,0-2.8,3.8-3.2,4.4s-2.3,2.5-2.5,3.3c-0.1,0.8-0.2,1.5-0.1,1.8s0.6,2.3,0.6,2.8
			c0,0.6-0.1,4.1,0.2,4.3c0,0.2,0,0.5,0.2,0.6c0.2,0.2,0.5,0.3,0.8,0.1c0.5-0.3,1-0.6,1.5-1c0.9-0.8,2-1.3,2.9-2
			c0.4-0.3,0.8-0.5,1.1-0.7c1.6-0.9,3.2-1.9,5-2.4c0.3-0.1,0.5-0.1,0.8-0.2c1-0.3,2.1-0.5,3.2-0.4c0.6,0.1,1.3,0.2,1.7,0.6
			c-0.4,0.7-1.1,0.9-1.8,1.1c-0.4,0.1-0.6,0.3-0.6,0.7c0,0.1,0,0.3,0.1,0.4c0.2,0.2,1,0.3,1.2,0.2c0.6-0.4,1.3-0.7,1.9-1.1
			c0.6,0.7,0.6,1.5,0.2,2.2c-0.1,0.2-0.2,0.5-0.3,0.8c-0.1,0.3-0.2,0.6-0.4,0.9c-0.2-0.1-0.4-0.1-0.5-0.2c-0.3-0.2-0.6-0.3-1,0
			c-0.2,0.1-0.5,0.1-0.7,0.1c-0.2,0-0.4,0-0.6,0.1c-0.4,0.2-0.6,0.4-0.5,0.6c0.1,0.3,0.6,0.4,0.9,0.4c0.5-0.1,1.1-0.2,1.7-0.3
			c-0.2,0.5-0.3,1.1-0.5,1.3c-0.3,0.2-0.1,0.7-0.5,0.8c-0.3,0.1-0.4,0.5-0.6,0.8c0,0-0.1,0.1-0.1,0.1c-1,0.6-1.6,1.5-2.4,2.3
			c-0.4,0.4-0.7,0.8-1,1.2c-0.3,0.3-0.7,0.6-1,0.9c0,0-0.1,0-0.1,0.1c-0.5,0.9-1.4,1.1-2.2,1.6c-0.7,0.4-1.3,1-1.9,1.4
			c-0.2,0.2-0.4,0.3-0.7,0.5c-0.3,0.3-0.7,0.4-0.9,0.9c-0.1,0.2-0.4,0.3-0.6,0.5c-0.4,0.3-0.8,0.5-1.2,0.8c-0.2,0.1-0.3,0.4-0.5,0.6
			c-0.1,0.1-0.3,0.3-0.4,0.4c-0.1,0.1-0.2,0.1-0.3,0.2c-0.3,0.7-0.8,1.1-1.3,1.5c-0.1,0.1-0.1,0.2-0.1,0.4c-0.3-0.1-0.6-0.2-0.9-0.4
			c-0.8-0.3-1-0.2-0.9,0.8c1,0.7,2.3,0.8,3.2,2c-0.6,0.4-1,0.7-1.6,1c-0.3,0.1-0.6,0.1-0.7,0.5c0,0.1-0.3,0.1-0.4,0.2
			c-0.4,0.2-0.8,0.3-1.2,0.6c-0.6,0.4-0.6,0.8-0.2,1.4c0.3,0.4,0.6,0.8,0.9,1.2c-0.1,0.3-0.2,0.5-0.3,0.8c-0.6,0.2-1.3,0.3-1.8,0.8
			c-0.3,0.3-0.8,0.3-1.1,0.4c-0.3,0.1-0.5,0.2-0.8,0.4c0.1,0.8,0.5,1.3,1,1.8c0.3,0.3,0.6,0.5,0.8,0.8c0.2,0.2,0.2,0.4-0.1,0.6
			c0,0-0.1,0.1-0.1,0.1c-1,0.3-1.9,0.9-3,0.8c-0.4,0-0.8,0-0.9,0.4c-0.1,0.3,0,0.7,0.2,1.1c0.2,0.4,0.6,0.8,0.9,1.2
			c0.4,0.6,0.2,0.9-0.4,1.1c-1.1,0.4-2.2,0.9-3.4,1.4c-0.1,0.5,0.2,0.9,0.5,1.4c0.6,0.8,1.2,1.6,1.6,2.6c-0.3,0.1-0.5,0.2-0.7,0.3
			c-0.8,0.2-1.4,0.7-2.1,1.2c-0.3,0.2-0.5,0.4-0.9,0.4c-0.3,0-0.5,0.1-0.8,0.3c-0.7,0.3-0.9,0.8-0.4,1.4c0.4,0.5,0.8,0.9,1.2,1.4
			c0.2,0.3,0.2,0.3,0.1,0.7c-0.5,0.1-1,0.2-1.5,0.5c-0.3,0.1-0.6,0.1-0.9,0.3c-0.4,0.1-0.7,0.3-1.1,0.5c-0.1,0.1-0.2,0.3-0.2,0.4
			c0.1,0.6,0.4,1.1,0.8,1.5c0.3,0.4,0.6,0.9,0.9,1.4c0.1,0.1-0.1,0.3-0.2,0.4c-0.1,0.1-0.3,0.2-0.5,0.3c-1,0.4-2,0.8-3,1.3
			c-0.2,0.1-0.3,0.2-0.5,0.4c-0.1,0.1-0.3,0.2-0.4,0.3c0.1,0.7,0.3,1.3,0.8,1.8c0.4,0.5,0.7,1.1,1,1.6c0.1,0.2,0.1,0.5,0.3,0.8
			c-0.8,0.2-1.5,0.3-2.2,0.5c-0.8,0.2-1.6,0.4-2.4,0.6c-0.6,0.2-0.8,0.4-0.5,1c0.2,0.5,0.4,0.9,0.7,1.3c0.4,0.7,0.9,1.3,1.2,2.1
			c0.1,0.2,0.1,0.4,0.2,0.6c0.1,0.7,0.1,0.7-0.6,0.8c-0.5,0.1-0.9,0.1-1.3,0.2c-0.2,0-0.3,0.2-0.6,0.4c-0.4-0.2-0.9-0.4-1.4-0.6
			c-0.8,0.7-0.9,0.9-0.2,1.8c0.4,0.5,0.8,0.9,1.2,1.4c0.1,0.2,0.3,0.4,0.4,0.6c0.3,0.5,0.1,1-0.4,1.2c-0.7,0.2-1.4,0.4-2,0.5
			c-0.3,0.1-0.6,0-0.9,0.1c-0.2,0.1-0.4,0.2-0.7,0.3c-0.6-0.3-1.4-0.3-2.1-0.1c-0.4,0.1-0.8,0.8-0.6,1.3c0.2,0.5,0.1,0.9-0.1,1.4
			c-0.4,1-0.8,2.1-1.2,3.1c-0.1,0.3-0.3,0.7-0.4,1.1c-0.5,1.3-1,2.7-1.6,4c-0.4,1-1,2-1.4,3c0,0.1-0.1,0.2-0.1,0.3
			c-0.5,1.4-1.3,2.7-2,4c-0.6,1.1-1.4,2.2-2,3.4c-0.2,0.4-0.5,0.9-0.7,1.3c-0.1,0.1-0.1,0.3-0.2,0.4c-0.1,0.1-0.2,0.2-0.2,0.3
			c0,0-1.8,2-2.7,2.1s-1.8-0.2-2.1-1.1c-0.3-0.9-0.1-3.9-0.1-3.9l0-1.1l0,0c0.1-1.5,0.3-3,0.4-4.5c0.1-0.7,0.3-1.4,0.5-2.2
			c0.4-1.5,0.7-3,0.7-4.6c0-0.5-0.1-1.1-0.3-1.6c-0.1-0.4-0.9-0.5-1.2-0.2c-0.2,0.2-0.4,0.3-0.4,0.5c-0.4,1.3-1.4,2.3-2,3.4
			c-1.2,2-2.3,4-3.4,5.9c-0.4,0.6-0.8,1.2-1.2,1.8c-0.4,0.6-0.8,1.2-1.2,1.9c-0.1,0.1-0.2,0.3-0.3,0.4c-0.3,0.3-0.5,0.6-0.7,0.8
			c-0.9,0.5-1.9,0.2-2.4-0.6c-0.5-0.8,0.3-3.6,0.6-4.8c0.3-1.2,3.8-12.4,4.1-13.4c0.2-1-0.6-1.8-1-2.3c-0.4-0.5-3.4-3-3.4-3
			s-1.6-1.2-2.2-1c-0.5,0.1-1,1.2-1.2,1.6c-0.5,0.6-1,1.1-1.6,1.6c-0.2,0.1-0.3,0.3-0.5,0.5c-0.2,0.2-0.5,0.2-0.6,0.4
			c-0.2,0.4-0.4-0.2-0.7,0c0.1-0.1,0.2-0.2,0.4-0.3c-0.2-0.2-0.6-0.4-0.3-0.9c0-0.1-0.2-0.3-0.3-0.4c-0.4-0.4-1.1-0.2-1.5,0.3
			c-0.2,0.2-0.4,0.5-0.6,0.7c-0.4,0.4-0.9,0.7-1.3,1c-0.4,0.4-0.8,0.4-1.3,0.2l0.1-0.9c0.1-0.1,0.3-0.1,0.4-0.2
			c-0.2-0.1-0.2-0.1-0.3-0.1c0.1-0.4,0.2-0.7,0.3-1.1c-0.1-0.2-0.3-0.3-0.4-0.5c-0.3-0.3-0.7-0.4-1.1-0.2c-0.3,0.1-0.5,0.2-0.7,0.4
			c-0.7,0.5-1.4,1-2.2,1.5c-0.3,0.2-0.7,0.4-1,0.6c-0.1,0.1-0.3,0.1-0.4,0c-0.2-0.1-0.3-0.3-0.4-0.4c0.6-0.4,1-0.8,1.3-1.4
			c0.1-0.2,0.1-0.5-0.2-0.6c-0.5-0.1-0.9-0.5-1.5-0.3c-0.5,0.1-1.1,0.1-1.6-0.2c-0.1-0.1-0.2-0.1-0.3-0.1c-0.8,0.1-1.4-0.4-2-0.7
			c-0.8-0.4-1.3-1.1-2-1.5c-0.6-0.3-0.8-0.8-0.8-1.3c1.1,0.6,11.1,0.5,11.9,0.3c0.8-0.2,5.9-1.2,6.7-1.7c0.8-0.4,2.7-2,3.5-2.9
			s0.9-2.1,1.1-2.8c0.2-0.7,1.4-3.7,1.8-4.7c0.4-1,2.3-6.7,2.7-7.4c0.4-0.8,3.8-10.2,4.2-11.2c0.4-1,5.1-13,5.9-15.1
			c0.7-1.8,3-7.6,3.7-9.6c0.1,0.1,0.2,0.3,0.4,0.4c1.6,0.2,2.4-1.2,3.7-1.6c0.3,0.8,0.6,1.6,1,2.3c0.4,0.8,1.2,1,1.7,0.5
			c0.8-0.9,1.7-1.7,2.5-2.6c0.4-0.4,0.8-0.4,1.2,0c0.2,0.2,0.3,0.4,0.4,0.6c0.5,0.7,0.7,0.8,1.4,0.2c1-0.9,1.9-1.9,2.8-2.9
			c0.4,0.4,0.9,0.9,1.4,1.3c0.7,0.7,1.4,0.6,1.7-0.3c0.2-0.4,0.2-0.9,0.3-1.3c0.1-0.5,0.3-1,0.5-1.5c0,0,0-0.1,0-0.2
			c0-0.2,0.2-0.5,0.6-0.4c0,0,0,0,0,0c0,0,0.1,0,0.1,0c1.1,0.3,2.1,0.6,3.2,0.9c0.9,0.3,1.5-0.1,1.5-1c0-0.3-0.1-0.5-0.2-0.7
			c-0.2-0.7-0.4-1.5-0.6-2.2c1.7-1,3.7-0.5,5-2l0,0c0,0,0.1-0.6-0.1-1c-0.1-0.2-0.6-0.9-0.8-1.4c-0.1-0.3-0.2-0.6-0.3-0.8
			c-0.1-0.4,0.3-0.6,0.7-0.8c0.9-0.4,1.7-0.9,1.9-1.9c0.1-0.6,0-1-0.4-1.4c-0.5-0.6-1-1.3-1.5-1.9c0.6-0.5,1.1-0.9,1.5-1.4
			c0.1-0.1,0.2-0.4,0.2-0.6l1.1-0.8l1.7-2c1-1.3,1.9-2.5,2.9-3.8c0.4-0.5,0.9-1,1.3-1.5c0,0,0.1,0,0.1,0c0.5-1.1,1.5-1.7,2.2-2.5
			c0.8-1,1.8-1.7,2.9-2.3c0.2-0.1,0.4-0.2,0.5-0.3c0.2-0.1,0.4-0.4,0.6-0.4c0.6-0.2,1.2-0.2,1.9-0.4c-0.1,0.5-0.2,0.8-0.5,1
			c-0.3,0.2-0.5,0.5-0.8,0.7c-0.2,0.2-0.4,0.4-0.1,0.7c0.2,0.2,0.6,0.3,0.8,0.1c0.1-0.1,0.1-0.2,0.2-0.2c0.6-0.6,1.1-1.1,1.7-1.7
			C119.3,7.7,120,8.1,120.4,8.9z"/>
		<path fill="#FFFFFF" d="M89.2,103.1c-0.1,0.2-0.4,0.4-0.7,0.6c-0.6,0.2-1.2,0.3-1.8,0.5l-0.3,0.1c-0.2,0-0.3,0-0.5,0.1
			c-0.1,0-0.3,0-0.4,0c-0.1,0-0.2,0.1-0.3,0.2c-0.1,0-0.2,0.1-0.3,0.1l-0.2,0.1l-0.2-0.1c-0.5-0.2-1.2-0.3-1.8-0.1
			c0,0-0.1,0.1-0.2,0.2c-0.1,0.2-0.1,0.4-0.1,0.4c0.3,0.7,0.1,1.2-0.2,1.7c-0.3,0.8-0.6,1.5-0.9,2.3L81,110
			c-0.1,0.2-0.1,0.3-0.2,0.5c-0.1,0.2-0.1,0.4-0.2,0.5l-0.4,1.1c-0.4,1-0.7,1.9-1.2,2.9c-0.3,0.7-0.6,1.4-1,2.1
			c-0.2,0.3-0.3,0.6-0.5,1c0,0.1-0.1,0.2-0.1,0.2c-0.5,1.4-1.3,2.7-2,3.9l-0.4,0.6c-0.2,0.4-0.4,0.7-0.7,1.1
			c-0.4,0.6-0.7,1.2-1.1,1.8l-0.3,0.5c-0.1,0.3-0.3,0.5-0.4,0.8c0,0.1-0.2,0.3-0.3,0.4l-0.2,0.3c-0.3,0.4-2,2.1-3,2.3
			c-1.3,0.2-2.3-0.4-2.6-1.5c-0.2-0.5-0.2-1.5-0.2-2.4l-0.2,0.4l0.3-3.2c0-0.5,0.1-1,0.1-1.5c0.1-1,0.2-2,0.3-3.1
			c0.1-0.5,0.2-1,0.3-1.5c0.1-0.2,0.1-0.4,0.2-0.7c0.4-1.7,0.6-3.2,0.7-4.5c0-0.5-0.1-1-0.3-1.5c0,0-0.1,0-0.2,0c-0.1,0-0.2,0-0.2,0
			c-0.1,0.1-0.2,0.2-0.3,0.3c-0.3,0.8-0.8,1.7-1.4,2.5c-0.2,0.3-0.5,0.7-0.7,1c-0.9,1.4-1.7,2.9-2.5,4.3l-1,1.7
			c-0.2,0.4-0.5,0.8-0.7,1.1c-0.2,0.2-0.3,0.4-0.4,0.7c-0.2,0.3-0.3,0.5-0.5,0.8c-0.2,0.4-0.4,0.7-0.7,1.1c-0.1,0.1-0.2,0.3-0.4,0.5
			c-0.2,0.3-0.5,0.6-0.8,0.9l-0.1,0.1c-1.1,0.6-2.4,0.3-3.1-0.7c-0.5-0.8-0.1-2.6,0.4-4.7l0.1-0.5c0.1-0.6,1.1-3.6,2-6.8
			c0.9-3,1.9-6.1,2-6.6c0.2-0.7-0.4-1.4-0.8-1.8c-0.3-0.4-2.2-2-3.4-3c-0.7-0.5-1.5-0.9-1.7-0.9l0,0c0,0-0.2,0.1-0.6,0.7
			c-0.1,0.2-0.3,0.5-0.3,0.6l0,0.1l0,0c-0.5,0.7-1.1,1.2-1.7,1.7c-0.1,0-0.1,0.1-0.2,0.2c-0.1,0.1-0.2,0.2-0.3,0.3
			c-0.1,0.1-0.2,0.1-0.3,0.2c-0.1,0-0.2,0.1-0.2,0.1c-0.1,0.1-0.5,0.6-1.1,0.2c0,0,0.2,0,0.3-0.1l-0.4-0.5c0,0,0,0,0,0
			c-0.2-0.2-0.6-0.5-0.4-1.1c0,0-0.1-0.1-0.1-0.1c-0.1-0.1-0.2-0.1-0.3-0.1c-0.2,0-0.3,0.1-0.4,0.2c-0.2,0.3-0.4,0.6-0.7,0.8
			c-0.2,0.2-0.4,0.3-0.6,0.5c-0.2,0.2-0.5,0.4-0.7,0.6c-0.6,0.5-1.2,0.6-1.9,0.3l-0.3-0.2l0.2-1.1l0,0l0.3-1.3l-0.2-0.3
			c-0.1-0.1-0.2-0.2-0.5-0.1c-0.2,0.1-0.5,0.2-0.7,0.4c-0.3,0.2-0.6,0.4-1,0.7c-0.4,0.3-0.8,0.6-1.2,0.8c-0.3,0.2-0.7,0.4-1.1,0.6
			c-0.2,0.1-0.6,0.1-0.9-0.1c-0.2-0.1-0.3-0.3-0.4-0.4l-0.5-0.5l0.5-0.3c0.5-0.3,0.8-0.7,1.1-1.1c-0.1,0-0.2-0.1-0.3-0.1
			c-0.3-0.1-0.6-0.2-0.8-0.1c-0.8,0.2-1.5,0.1-2-0.3c-0.7,0.1-1.3-0.2-1.8-0.5c-0.2-0.1-0.3-0.2-0.5-0.3c-0.5-0.2-0.9-0.6-1.3-0.9
			c-0.3-0.2-0.5-0.5-0.8-0.6c-0.7-0.4-1-1-1.1-1.7l-0.1-1l0.8,0.5c0.9,0.5,10.7,0.5,11.6,0.2c0.2-0.1,0.8-0.2,1.6-0.4
			c1.6-0.3,4.5-1,5.1-1.3c0.8-0.4,2.6-1.9,3.4-2.8c0.5-0.5,0.7-1.4,0.9-2c0-0.2,0.1-0.4,0.1-0.5c0.1-0.4,0.6-1.6,1.1-2.8
			c0.3-0.8,0.6-1.5,0.7-1.9c0.1-0.2,0.2-0.7,0.4-1.3c1-2.8,2-5.6,2.3-6.2c0.2-0.4,1.6-4.2,2.7-7c0.7-2,1.4-3.7,1.5-4.1
			c0.4-1,5.2-13.1,5.9-15.1c0.6-1.7,2.8-7.3,3.7-9.6l0.3-0.8l0.6,0.7c0,0,0.1,0.1,0.1,0.1c0.7,0,1.2-0.4,1.8-0.8
			c0.4-0.3,0.9-0.6,1.5-0.8l0.4-0.2l0.2,0.4c0.1,0.3,0.2,0.5,0.3,0.8c0.2,0.5,0.4,1,0.7,1.5c0.1,0.3,0.3,0.4,0.5,0.5
			c0.1,0,0.3,0,0.4-0.1c0.5-0.5,0.9-0.9,1.4-1.4l1.2-1.2c0.3-0.3,0.6-0.5,1-0.5c0.3,0,0.6,0.2,1,0.5c0.1,0.1,0.2,0.3,0.3,0.5
			c0,0.1,0.1,0.1,0.1,0.2c0.2,0.3,0.3,0.4,0.3,0.4c0,0,0.1-0.1,0.3-0.3c0.7-0.6,1.3-1.3,1.9-2c0.3-0.3,0.6-0.6,0.9-0.9l0.3-0.4
			l0.7,0.7c0.3,0.3,0.7,0.6,1,1c0.2,0.2,0.4,0.3,0.5,0.3c0.2,0,0.3-0.2,0.4-0.4c0.1-0.2,0.1-0.4,0.2-0.6c0-0.2,0.1-0.4,0.1-0.6
			c0.1-0.3,0.2-0.7,0.3-1l0.2-0.6c0.1-0.6,0.6-0.9,1.1-0.8l0.2,0l0,0l1,0.3c0.8,0.2,1.5,0.4,2.2,0.7c0.1,0,0.6,0.2,0.8-0.1
			c0.1-0.1,0.1-0.2,0.1-0.4c0-0.1,0-0.2-0.1-0.3c0-0.1-0.1-0.2-0.1-0.3l-0.7-2.6l0.3-0.2c0.8-0.4,1.6-0.6,2.4-0.7
			c1-0.2,1.8-0.4,2.5-1c0-0.2,0-0.4,0-0.5c-0.2-0.3-0.6-1-0.8-1.5c-0.2-0.3-0.3-0.7-0.3-0.9c-0.1-0.3,0-0.5,0.1-0.7
			c0.2-0.3,0.6-0.5,0.9-0.6c1.1-0.4,1.5-0.9,1.6-1.6c0.1-0.4,0-0.7-0.3-1c-0.4-0.4-0.8-0.9-1.1-1.4c-0.1-0.2-0.3-0.4-0.4-0.6
			l-0.3-0.4l0.3-0.3c0.2-0.2,0.3-0.3,0.5-0.4c0.4-0.3,0.7-0.6,1-0.9c0.1-0.1,0.1-0.2,0.1-0.3l0-0.2l1.2-0.8l1.6-2
			c0.5-0.6,0.9-1.2,1.4-1.8c0.5-0.7,1-1.3,1.5-2c0.3-0.4,0.6-0.7,0.9-1.1l0.4-0.5c0-0.1,0.1-0.2,0.1-0.2c0.3-0.6,0.8-1,1.2-1.4
			c0.3-0.3,0.6-0.6,0.8-0.9c0.8-1,1.9-1.7,3-2.4c0.1,0,0.2-0.1,0.2-0.1c0.1,0,0.2-0.1,0.3-0.2c0.1,0,0.1-0.1,0.2-0.1
			c0.2-0.1,0.3-0.3,0.6-0.4c0.4-0.1,0.8-0.2,1.3-0.3l1.3-0.3l-0.1,0.7c-0.1,0.6-0.3,1-0.7,1.3c-0.1,0.1-0.3,0.2-0.4,0.4
			c-0.1,0.1-0.2,0.2-0.3,0.3c0,0,0,0,0,0c0,0,0.1,0,0.1,0c0.1-0.1,0.1-0.1,0.1-0.2l0.4-0.4c0.4-0.4,0.9-0.9,1.3-1.3l0.3-0.2l0.3,0.2
			c0,0,0.9,0.5,1.4,1.5c0.1,0.3,0.2,0.6,0.2,1c0,0.3,0,0.5,0,0.7l0,0.2l-2.1,1.2c0.1,0,0.2,0,0.3-0.1l1.8-0.4l-5.2,7.1
			c0,0-2.8,3.8-3.2,4.4c-0.2,0.3-0.5,0.6-0.9,1.1c-0.5,0.6-1.1,1.2-1.4,1.7c-0.1,0.2-0.1,0.3-0.2,0.3c-0.2,1.2-0.1,1.4-0.1,1.5
			c0.2,0.3,0.7,2.4,0.6,3.1c-0.1,0.9-0.1,3.3,0.1,3.9l0.1,0.1l0,0.3c0,0.2,0,0.3,0,0.3c0.1,0,0.1,0,0.1,0c0.2-0.1,0.4-0.2,0.5-0.3
			c0.3-0.2,0.6-0.4,0.9-0.6c0.6-0.5,1.2-0.9,1.8-1.3c0.4-0.2,0.8-0.5,1.1-0.7c0.4-0.3,0.8-0.5,1.2-0.8l0.4-0.3
			c1.5-0.9,3-1.8,4.7-2.2c0.3-0.1,0.5-0.1,0.8-0.2c1.2-0.4,2.3-0.5,3.4-0.4c0.7,0.1,1.5,0.3,2,0.6l0.4,0.3l-0.3,0.4
			c-0.5,0.9-1.4,1.1-2.1,1.3c-0.2,0.1-0.2,0.1-0.2,0.1c0,0,0,0.1,0,0.1c0.1,0.1,0.5,0.1,0.6,0.1l2.3-1.3l0.3,0.3
			c0.7,0.9,0.8,1.8,0.3,2.8c-0.1,0.1-0.1,0.2-0.1,0.4c0,0.1-0.1,0.2-0.1,0.3c-0.1,0.2-0.2,0.4-0.2,0.6l-0.3,0.7l-0.4-0.2l-0.2,0.4
			c-0.1,0.2-0.1,0.3-0.2,0.5c-0.1,0.4-0.3,0.8-0.6,1c0,0,0,0,0,0.1c0,0.2-0.2,0.7-0.6,0.8c0,0-0.1,0.2-0.2,0.3
			c-0.1,0.1-0.1,0.2-0.2,0.3c-0.1,0.1-0.2,0.2-0.2,0.2c-0.5,0.3-0.9,0.8-1.4,1.3c-0.3,0.3-0.6,0.7-1,1c-0.3,0.3-0.6,0.6-0.9,1
			l-0.1,0.1c-0.2,0.3-0.5,0.5-0.8,0.7c-0.1,0.1-0.2,0.2-0.3,0.2l-0.1,0.1c-0.5,0.7-1.1,1-1.7,1.3c-0.2,0.1-0.4,0.2-0.6,0.3
			c-0.4,0.3-0.8,0.6-1.3,0.9c-0.2,0.2-0.4,0.3-0.6,0.5l-0.2,0.2c-0.1,0.1-0.3,0.2-0.4,0.3c-0.1,0.1-0.2,0.2-0.4,0.3
			c-0.2,0.1-0.3,0.2-0.4,0.4l-0.1,0.2c-0.1,0.2-0.4,0.4-0.6,0.5c-0.1,0-0.1,0.1-0.2,0.1c-0.2,0.1-0.3,0.2-0.5,0.3
			c-0.2,0.1-0.5,0.3-0.7,0.5c-0.1,0-0.1,0.1-0.2,0.2c-0.1,0.1-0.1,0.2-0.2,0.3c-0.1,0.1-0.2,0.2-0.4,0.3l-0.1,0.1
			c0,0-0.1,0.1-0.2,0.1c0,0.1-0.1,0.2-0.2,0.3c-0.3,0.5-0.8,0.9-1.2,1.3c0,0.1,0,0.1,0,0.2l-0.2,0.5l-1.4-0.6
			c-0.1,0-0.2-0.1-0.2-0.1c0,0,0,0.1,0,0.1c0.3,0.2,0.6,0.3,0.9,0.4c0.7,0.3,1.6,0.7,2.2,1.5l0.3,0.4l-0.9,0.6
			c-0.4,0.2-0.7,0.5-1.1,0.7c-0.1,0.1-0.2,0.1-0.3,0.1c-0.1,0-0.1,0-0.2,0.1l-0.1,0.2c-0.1,0.2-0.4,0.3-0.5,0.3c0,0-0.1,0-0.1,0
			c-0.1,0.1-0.2,0.1-0.4,0.2c-0.3,0.1-0.5,0.2-0.7,0.4c-0.2,0.1-0.2,0.2-0.3,0.2c0,0.1,0.1,0.3,0.2,0.4c0.2,0.3,0.4,0.6,0.6,0.8
			l0.5,0.6l-0.4,1.2l-0.2,0.2c-0.2,0.1-0.4,0.1-0.6,0.2c-0.4,0.1-0.8,0.2-1.1,0.5c-0.3,0.3-0.6,0.3-0.9,0.4c-0.1,0-0.2,0.1-0.4,0.1
			c-0.1,0.1-0.3,0.1-0.4,0.2c0.1,0.4,0.4,0.8,0.8,1.2c0.2,0.2,0.3,0.3,0.5,0.5l0.3,0.3c0.5,0.5,0.3,0.9,0.2,1.1
			c-0.1,0.1-0.2,0.2-0.4,0.3c0,0-0.1,0.1-0.3,0.1c-0.3,0.1-0.6,0.2-1,0.3c-0.7,0.3-1.4,0.6-2.3,0.5c-0.3,0-0.4,0-0.4,0
			c0,0.1,0.1,0.4,0.2,0.7c0.1,0.2,0.3,0.4,0.4,0.6c0.1,0.2,0.3,0.3,0.4,0.5c0.3,0.5,0.4,0.9,0.2,1.3c-0.2,0.3-0.6,0.5-0.8,0.6
			c-0.8,0.3-1.6,0.6-2.3,1l-0.7,0.3c0,0.2,0.2,0.4,0.4,0.7c0.6,0.8,1.3,1.6,1.7,2.7l0.2,0.5l-0.7,0.3c-0.2,0.1-0.4,0.2-0.6,0.2
			c-0.7,0.2-1.3,0.6-1.9,1.1c-0.3,0.2-0.7,0.5-1.2,0.5c-0.1,0-0.3,0.1-0.5,0.2L98,77c-0.3,0.1-0.3,0.2-0.4,0.2c0,0.1,0,0.2,0.2,0.4
			c0.2,0.3,0.5,0.6,0.7,0.9c0.2,0.2,0.3,0.3,0.4,0.5c0.4,0.4,0.4,0.6,0.2,1.2l-0.1,0.3l-0.3,0.1c-0.5,0.1-1,0.2-1.4,0.4
			c-0.2,0.1-0.4,0.1-0.6,0.2c-0.1,0-0.2,0-0.3,0.1c-0.3,0.1-0.6,0.3-0.9,0.4c0.1,0.5,0.4,0.9,0.7,1.3c0.4,0.5,0.7,1,1,1.4
			c0.2,0.3,0,0.7-0.1,0.8c0,0.1-0.1,0.1-0.1,0.2c-0.2,0.2-0.4,0.3-0.6,0.4l-1.2,0.5c-0.6,0.3-1.2,0.5-1.9,0.8c0,0-0.1,0.1-0.2,0.1
			c-0.1,0.1-0.1,0.1-0.2,0.1l-0.2,0.1c0.1,0.5,0.3,0.9,0.6,1.2c0.4,0.4,0.6,0.9,0.9,1.4l0.2,0.3c0.1,0.2,0.2,0.4,0.2,0.6
			c0,0.1,0,0.2,0.1,0.3l0.2,0.5l-1.3,0.3c-0.5,0.1-1,0.2-1.5,0.3L92,92.5c-0.7,0.2-1.3,0.3-2,0.5c-0.2,0.1-0.2,0.1-0.3,0.1
			c0,0,0,0.1,0.1,0.2c0.1,0.4,0.4,0.8,0.6,1.2c0.1,0.1,0.2,0.3,0.3,0.4c0.4,0.5,0.7,1.1,0.9,1.8l0,0.2c0.1,0.2,0.1,0.3,0.1,0.5
			c0,0.3,0.1,0.6-0.1,0.9c-0.2,0.3-0.6,0.4-1,0.5c-0.4,0.1-0.9,0.1-1.3,0.2c0,0-0.1,0.1-0.1,0.1c-0.1,0.1-0.2,0.1-0.3,0.2l-0.2,0.1
			l-1.4-0.5c-0.1,0.1-0.2,0.2-0.2,0.3c0,0-0.1,0.1,0.3,0.6c0.2,0.3,0.5,0.5,0.7,0.8c0.2,0.2,0.3,0.4,0.5,0.6
			c0.2,0.2,0.3,0.4,0.4,0.7C89.4,102.3,89.4,102.7,89.2,103.1z M84.7,103.6C84.7,103.6,84.7,103.6,84.7,103.6
			c0.2-0.1,0.4-0.2,0.6-0.3c0.2,0,0.4-0.1,0.6-0.1c0.1,0,0.2,0,0.4,0l0.3-0.1c0.6-0.1,1.1-0.2,1.6-0.4c0.2-0.1,0.3-0.1,0.1-0.5
			c-0.1-0.2-0.2-0.3-0.3-0.5c-0.2-0.2-0.3-0.4-0.5-0.5c-0.3-0.3-0.5-0.6-0.7-0.9c-0.4-0.5-0.8-1.1-0.4-1.8c0.1-0.2,0.4-0.4,0.7-0.7
			l0.2-0.2l1.4,0.6c0,0,0,0,0,0c0.2-0.1,0.3-0.2,0.5-0.3c0.5-0.1,0.9-0.2,1.4-0.2c0.1,0,0.2,0,0.3,0c0-0.1,0-0.1,0-0.2
			c0-0.1-0.1-0.2-0.1-0.3l-0.1-0.2c-0.2-0.5-0.5-1-0.8-1.5c-0.1-0.1-0.2-0.3-0.3-0.5c-0.3-0.5-0.6-1-0.7-1.4c-0.1-0.3-0.2-0.7,0-1.1
			c0.2-0.3,0.5-0.5,0.9-0.6c0.7-0.2,1.4-0.4,2-0.5l0.3-0.1c0.5-0.1,1-0.2,1.5-0.3l0.2,0c0-0.1,0-0.1-0.1-0.2l-0.2-0.3
			c-0.2-0.4-0.5-0.9-0.8-1.2c-0.6-0.7-0.8-1.5-0.9-2L91.8,87l0.7-0.5c0,0,0.1-0.1,0.1-0.1c0.1-0.1,0.3-0.2,0.4-0.3
			c0.6-0.3,1.2-0.5,1.9-0.8l1.2-0.5c0.1-0.1,0.3-0.1,0.3-0.1l0,0c-0.2-0.4-0.5-0.8-0.8-1.1c-0.4-0.5-0.8-1-0.9-1.8
			c-0.1-0.3,0.1-0.8,0.4-0.9c0.3-0.2,0.7-0.4,1.2-0.6c0.2-0.1,0.3-0.1,0.5-0.1c0.1,0,0.3-0.1,0.4-0.1c0.4-0.2,0.8-0.3,1.2-0.4
			c0,0,0,0,0,0c-0.1-0.2-0.3-0.3-0.4-0.5c-0.3-0.3-0.5-0.6-0.8-0.9c-0.5-0.7-0.4-1.2-0.3-1.5c0.2-0.3,0.4-0.5,0.8-0.7l0.1,0
			c0.3-0.1,0.5-0.2,0.9-0.2c0.2,0,0.4-0.1,0.6-0.3c0.7-0.5,1.4-1,2.3-1.3c0.1,0,0.1,0,0.2-0.1c-0.3-0.8-0.9-1.4-1.3-2
			c-0.3-0.4-0.7-0.9-0.6-1.7l0-0.3l1.3-0.5c0.8-0.3,1.6-0.7,2.4-1c0.2-0.1,0.3-0.1,0.3-0.2c0,0,0-0.1-0.1-0.2
			c-0.1-0.1-0.2-0.3-0.3-0.4c-0.2-0.2-0.4-0.5-0.6-0.8c-0.1-0.2-0.4-0.8-0.3-1.4c0-0.1,0.1-0.2,0.1-0.2c0.3-0.6,1.1-0.5,1.3-0.5
			c0.6,0.1,1.2-0.2,1.8-0.4c0.3-0.1,0.6-0.3,0.9-0.3l-0.2-0.2c-0.2-0.2-0.3-0.3-0.5-0.5c-0.5-0.5-1-1.1-1.1-2.1l0-0.3l0.5-0.3
			c0.2-0.1,0.4-0.2,0.6-0.3c0.2-0.1,0.3-0.1,0.5-0.1c0.2,0,0.4-0.1,0.5-0.2c0.5-0.4,1-0.6,1.5-0.7c0.1,0,0.2-0.1,0.3-0.1l0.1-0.3
			l-0.1-0.2c-0.2-0.3-0.4-0.6-0.7-0.9c-0.2-0.3-0.8-1.2,0.3-2c0.3-0.2,0.6-0.4,0.9-0.5c0.1,0,0.2-0.1,0.3-0.1c0.1,0,0.1-0.1,0.2-0.1
			c0.2-0.3,0.5-0.5,0.7-0.5c0,0,0.1,0,0.1-0.1c0.3-0.2,0.7-0.4,1-0.6c-0.4-0.4-0.9-0.6-1.5-0.8c-0.4-0.2-0.9-0.4-1.3-0.6l-0.2-0.1
			l0-0.2c-0.1-0.5,0-0.8,0.1-1.1c0.4-0.6,1.1-0.3,1.4-0.2l0.5,0.1l0.1-0.1c0.5-0.4,0.9-0.8,1.2-1.3c0.1-0.3,0.3-0.3,0.4-0.4l0.1-0.1
			c0.1-0.1,0.2-0.2,0.3-0.3c0.1-0.1,0.1-0.1,0.2-0.2c0.1-0.1,0.2-0.3,0.4-0.4c0.2-0.2,0.5-0.3,0.8-0.5c0.2-0.1,0.3-0.2,0.5-0.3
			c0.1,0,0.1-0.1,0.2-0.1c0.1,0,0.2-0.1,0.2-0.2c0,0,0-0.2,0.1-0.2c0.2-0.3,0.4-0.5,0.7-0.6c0.1-0.1,0.2-0.1,0.2-0.2
			c0.1-0.1,0.3-0.3,0.5-0.4l0.2-0.2c0.2-0.1,0.4-0.3,0.6-0.5c0.4-0.4,0.9-0.7,1.4-1c0.2-0.1,0.5-0.2,0.7-0.4c0.6-0.3,1-0.5,1.3-1
			c0,0,0,0,0,0c0.1-0.2,0.3-0.2,0.3-0.3c0,0,0.2-0.1,0.3-0.2c0.2-0.2,0.5-0.3,0.6-0.5l0.1-0.1c0.3-0.4,0.6-0.8,1-1.1
			c0.3-0.3,0.6-0.6,0.9-0.9c0.5-0.5,0.9-1,1.6-1.4c0-0.1,0.1-0.1,0.1-0.2c0.2-0.3,0.4-0.6,0.7-0.7c0,0,0,0,0-0.1
			c0-0.2,0.2-0.5,0.4-0.7c0-0.1,0.1-0.1,0.1-0.2c-0.3,0.1-0.6,0.1-0.9,0.2c-0.5,0.1-1.2-0.1-1.5-0.7c-0.2-0.5,0.1-1.1,0.8-1.3
			c0.2-0.1,0.4-0.1,0.6-0.1l0.1,0c0.1,0,0.2,0,0.3,0c0.1,0,0.2,0,0.2,0c0.7-0.5,1.3-0.1,1.6,0c0.1-0.1,0.1-0.3,0.2-0.4
			c0-0.1,0.1-0.2,0.1-0.3c0.1-0.2,0.1-0.4,0.2-0.6c0.3-0.4,0.3-0.9,0.1-1.3l-1.5,0.8c-0.4,0.2-1.5,0.2-1.9-0.3
			c-0.1-0.2-0.2-0.5-0.2-0.7c0-0.6,0.3-1,1-1.1c0.5-0.1,0.9-0.3,1.2-0.5c-0.3-0.1-0.6-0.2-1-0.2c-0.9-0.1-1.9,0-3,0.3
			c-0.3,0.1-0.6,0.2-0.8,0.2c-1.6,0.4-3,1.2-4.4,2l-0.4,0.3c-0.4,0.2-0.7,0.5-1.1,0.7c-0.4,0.3-0.8,0.5-1.2,0.8
			c-0.6,0.4-1.2,0.7-1.7,1.2c-0.3,0.3-0.7,0.5-1.1,0.7c-0.2,0.1-0.3,0.2-0.5,0.3c-0.2,0.2-0.7,0.3-1.4-0.1c-0.3-0.2-0.3-0.5-0.4-0.9
			c-0.5-1-0.3-3.8-0.2-4.5c0-0.5-0.4-2.3-0.5-2.6c-0.1-0.2-0.2-0.7,0-2.1c0.1-0.6,1-1.7,1.7-2.6c0.3-0.4,0.7-0.8,0.8-1
			c0.4-0.7,3.1-4.3,3.3-4.5l3.6-4.9c-0.6,0.1-1-0.3-1.3-0.6L117,12l3.2-1.9c0-0.1,0-0.2,0-0.3c0-0.2-0.1-0.5-0.2-0.7
			c-0.2-0.4-0.4-0.6-0.6-0.8c-0.4,0.3-0.7,0.7-1,1l-0.4,0.4c-0.1,0.1-0.2,0.2-0.3,0.3c-0.5,0.3-1.2,0.2-1.5-0.2
			c-0.4-0.4-0.3-1,0.2-1.4c0.1-0.1,0.2-0.2,0.3-0.3c0.1-0.1,0.2-0.3,0.4-0.4c-0.3,0.1-0.5,0.1-0.8,0.2c0,0-0.1,0.1-0.2,0.2
			c-0.1,0.1-0.2,0.2-0.3,0.2c-0.1,0.1-0.2,0.1-0.3,0.2c-0.1,0-0.1,0.1-0.2,0.1c-1.1,0.7-2.1,1.3-2.8,2.2c-0.3,0.4-0.6,0.7-0.9,1
			c-0.5,0.5-0.9,0.9-1.2,1.5l-0.1,0.2l-0.4,0.5c-0.3,0.3-0.6,0.7-0.9,1c-0.5,0.7-1,1.3-1.5,2c-0.5,0.6-0.9,1.2-1.4,1.8l-1.8,2.1
			l-0.9,0.6c-0.1,0.2-0.2,0.5-0.3,0.6c-0.3,0.4-0.7,0.7-1.1,1c-0.1,0-0.1,0.1-0.2,0.1c0.1,0.1,0.1,0.2,0.2,0.2
			c0.3,0.5,0.7,0.9,1,1.3c0.5,0.6,0.7,1.1,0.5,1.9c-0.1,0.3-0.2,0.6-0.3,0.9c-0.5,0.8-1.3,1.2-1.9,1.4c-0.2,0.1-0.4,0.1-0.4,0.2
			c0.1,0.3,0.2,0.5,0.3,0.7c0.2,0.5,0.6,1.1,0.7,1.3c0.3,0.6,0.2,1.3,0.2,1.4l0,0.1l-0.1,0.1c-0.9,1-2,1.3-3.1,1.5
			c-0.6,0.1-1.2,0.2-1.7,0.5l0.5,1.8c0,0.1,0,0.1,0.1,0.2c0.1,0.2,0.1,0.4,0.2,0.6c0,1.2-1,1.8-2.2,1.5c-0.7-0.2-1.4-0.4-2.2-0.6
			l-0.9-0.3c0,0-0.1,0-0.1,0c0,0.1,0,0.2-0.1,0.2l-0.2,0.5c-0.1,0.3-0.2,0.6-0.3,1c0,0.2-0.1,0.3-0.1,0.5c-0.1,0.3-0.1,0.6-0.2,0.9
			c-0.3,0.6-0.7,0.9-1.2,1c-0.3,0-0.8,0-1.4-0.6c-0.3-0.3-0.7-0.7-1-1l0,0c-0.2,0.2-0.3,0.4-0.5,0.5c-0.7,0.7-1.3,1.4-2,2
			c-0.3,0.3-0.7,0.6-1.1,0.5c-0.4,0-0.7-0.4-1-0.8c-0.1-0.1-0.1-0.2-0.2-0.3c-0.1-0.1-0.1-0.2-0.2-0.3c-0.2-0.2-0.2-0.2-0.2-0.2
			s-0.1,0-0.3,0.2l-1.2,1.2c-0.5,0.5-0.9,0.9-1.4,1.4c-0.3,0.3-0.8,0.5-1.3,0.4c-0.5-0.1-1-0.5-1.3-1c-0.3-0.5-0.5-1.1-0.7-1.6
			c0-0.1-0.1-0.2-0.1-0.3c-0.3,0.1-0.5,0.3-0.8,0.5c-0.7,0.5-1.5,1.1-2.7,1l-0.1,0c-1,2.6-2.9,7.3-3.5,8.9c-0.8,2.1-5.5,14-5.9,15.1
			c-0.2,0.4-0.8,2.1-1.5,4c-1.4,3.9-2.5,6.7-2.7,7.2c-0.3,0.6-1.6,4.3-2.2,6.1c-0.2,0.6-0.4,1.1-0.5,1.3c-0.1,0.4-0.4,1.2-0.8,2
			c-0.4,1.1-0.9,2.4-1,2.7c0,0.1-0.1,0.3-0.1,0.5c-0.2,0.7-0.5,1.8-1.1,2.5c-0.8,0.9-2.7,2.5-3.7,3c-0.6,0.3-2.8,0.8-5.3,1.4
			c-0.7,0.2-1.3,0.3-1.5,0.3c-0.7,0.2-8.1,0.4-11.2,0c0.1,0,0.1,0.1,0.2,0.1c0.3,0.2,0.6,0.5,0.9,0.7c0.3,0.3,0.7,0.6,1.1,0.8
			c0.2,0.1,0.4,0.2,0.5,0.3c0.4,0.3,0.8,0.5,1.2,0.4c0.2,0,0.4,0,0.6,0.2c0.4,0.3,0.9,0.2,1.2,0.1c0.6-0.2,1.1,0,1.5,0.2
			c0.1,0,0.2,0.1,0.3,0.1c0.3,0.1,0.5,0.3,0.5,0.5c0.1,0.3,0.1,0.6-0.1,0.8c-0.2,0.4-0.5,0.7-0.7,0.9c0.2-0.1,0.4-0.2,0.6-0.4
			c0.4-0.3,0.8-0.5,1.2-0.8c0.3-0.2,0.7-0.5,1-0.7c0.2-0.2,0.5-0.3,0.8-0.4c0.6-0.3,1.2-0.2,1.6,0.3l0.6,0.7l-0.2,0.9l0.7,0.2
			L45,104c-0.1,0.1-0.2,0.2-0.3,0.2l0,0.2c0.1,0,0.2-0.1,0.4-0.2c0.2-0.2,0.5-0.5,0.8-0.6c0.2-0.1,0.4-0.3,0.5-0.4
			c0.2-0.1,0.3-0.3,0.5-0.6c0.2-0.4,0.6-0.6,1.1-0.7c0.4-0.1,0.8,0,1.1,0.3c0.3,0.2,0.7,0.7,0.5,1.1c0,0,0.1,0.1,0.1,0.1
			c0.1,0.1,0.1,0.1,0.2,0.2l0,0c0,0,0,0,0,0c0.1,0,0.1-0.1,0.2-0.1c0.1-0.1,0.1-0.1,0.2-0.2c0.1-0.1,0.2-0.2,0.3-0.3
			c0.5-0.4,1-0.8,1.5-1.5c0.1-0.2,0.2-0.4,0.3-0.6c0.4-0.7,0.8-1,1.1-1.2c0.7-0.2,1.9,0.6,2.6,1c0.3,0.3,3.1,2.6,3.5,3
			c0.5,0.6,1.4,1.5,1.1,2.7c-0.1,0.5-1,3.5-2,6.7c-0.9,3-1.9,6.1-2,6.7l-0.1,0.5c-0.2,0.9-0.8,3.5-0.5,3.9c0.3,0.5,1,0.8,1.7,0.4
			c0.2-0.2,0.4-0.5,0.7-0.8c0.1-0.1,0.2-0.3,0.3-0.4c0.2-0.3,0.4-0.7,0.7-1c0.2-0.3,0.3-0.6,0.5-0.8c0.2-0.2,0.3-0.5,0.5-0.7
			c0.2-0.3,0.5-0.7,0.7-1l1-1.7c0.8-1.5,1.6-2.9,2.5-4.3c0.2-0.4,0.5-0.7,0.7-1.1c0.5-0.7,1-1.5,1.2-2.2c0.1-0.3,0.3-0.5,0.5-0.7
			c0.3-0.3,0.8-0.5,1.3-0.3c0.4,0.1,0.7,0.3,0.8,0.7c0.2,0.5,0.3,1.2,0.3,1.8c-0.1,1.4-0.3,2.9-0.7,4.7c-0.1,0.2-0.1,0.5-0.2,0.7
			c-0.1,0.5-0.3,0.9-0.3,1.4c-0.1,1-0.2,2-0.3,3c0,0.5-0.1,1-0.1,1.4l-0.1,1.1c-0.1,1.1-0.1,3.2,0,3.7c0.2,0.7,0.9,0.9,1.5,0.8
			c0.5-0.1,1.7-1.2,2.4-1.9l0.2-0.3c0.1-0.1,0.1-0.2,0.1-0.2c0.2-0.3,0.3-0.6,0.5-0.8l0.3-0.5c0.3-0.6,0.7-1.3,1.1-1.9
			c0.2-0.4,0.4-0.7,0.7-1.1l0.4-0.6c0.7-1.2,1.4-2.5,1.9-3.8c0-0.1,0.1-0.2,0.1-0.3c0.2-0.3,0.3-0.6,0.5-1c0.3-0.7,0.7-1.3,1-2
			c0.4-0.9,0.8-1.9,1.1-2.9l0.4-1.1c0.1-0.2,0.1-0.3,0.2-0.5c0.1-0.2,0.1-0.4,0.2-0.5l0.3-0.8c0.3-0.8,0.6-1.6,0.9-2.3
			c0.2-0.4,0.3-0.7,0.1-1c-0.3-0.7,0.3-1.7,0.9-1.9C83.2,103.3,84,103.3,84.7,103.6z M125.4,35.3c0.1,0,0.2,0,0.2,0
			c0.4-0.1,0.7-0.1,1.2-0.2l0.6-0.1c-0.3-0.2-0.3-0.1-0.4,0c-0.2,0.2-0.5,0.2-0.8,0.2c-0.1,0-0.1,0-0.2,0l-0.2,0
			C125.7,35.2,125.5,35.2,125.4,35.3C125.4,35.3,125.4,35.3,125.4,35.3z"/>
	</g>
	
	<g>
		<path d="M36.4,93c0.5,0,0.9-0.2,1.2-0.7c-0.3-0.6-0.8-0.8-1.4-0.7c-1.1,0.1-2.2,0.1-3.2-0.4c-0.3-0.1-0.6-0.2-0.9-0.3
			c-0.3-0.1-0.5,0-0.7,0.2c-0.2,0.2-0.1,0.5,0,0.7c0.2,0.5,0.6,0.7,1,0.8C33.7,92.9,35,93.1,36.4,93z"/>
		<path d="M27.3,102.5c0.8,0.3,1,0.3,1.6-0.4c0-0.6-0.4-0.8-0.9-0.9c-0.4-0.1-0.9,0-1.2-0.3c-0.7-0.5-1.4-0.4-2.2-0.7
			c-0.1,0.3-0.4,0.5-0.3,0.7c0,0.3,0.3,0.5,0.6,0.6C25.6,101.8,26.5,102.2,27.3,102.5z"/>
		<path d="M30.2,108.1c-0.6-0.1-1.2-0.2-1.8-0.4c-0.3-0.1-0.6-0.2-0.8-0.4c-0.8-0.6-1.2-0.6-1.5,0.4c0.4,0.9,1.2,1.2,2.1,1.5
			c0.5,0.1,0.9,0.5,1.5,0.4c0.4-0.1,0.7-0.2,0.9-0.5C30.4,108.7,30.3,108.4,30.2,108.1z"/>
		<g class="eyes">
		    <path class="eye-right" d="M80.6,9.6c0.2-0.9-0.3-1.5-1.2-1.7c-0.8-0.1-1.3,0.3-1.5,1.1c-0.1,0.6,0.3,1.4,0.9,1.5C79.6,10.7,80.5,10.2,80.6,9.6z"/>
            <path class="eye-left" d="M77.2,26.2c0.9-0.7,1.1-1.4,0.8-2.2c-0.4-1-1.6-1.2-2.3-0.4c-0.3,0.4-0.5,0.8-0.6,1c-0.2,1,0,1.5,0.5,1.8
			C76.2,26.8,76.7,26.6,77.2,26.2z"/>
		</g>
		<path d="M130.6,31c0.1-0.4-0.1-0.7-0.3-1c-0.4-0.5-0.7-1.1-1.2-1.4c-0.3-0.3-0.9-0.3-1.3-0.4c-0.3-0.1-0.6,0.1-0.8-0.3
			c0-0.1-0.3-0.1-0.4-0.1c-1,0.1-1.9,0-2.9,0.1c-0.7,0.1-1.3,0.3-2,0.6c-0.5,0.2-1,0.4-1.5,0.5c0,0-0.1,0-0.1,0.1
			c-0.3,0.2-0.6,0.6-1,0.6c-0.4,0.1-0.7,0.1-1,0.4c-0.3,0.2-0.7,0.3-1,0.5c-0.2,0.1-0.4,0.2-0.5,0.3c-0.2,0.2-0.4,0.3-0.6,0.4
			c-0.6,0.3-1.1,0.6-1.6,0.9c-0.6,0.3-1.2,0.7-1.9,1c-0.1-0.3-0.2-0.4-0.2-0.6c0-0.4,0-0.9,0-1.3c0-0.8,0-1.6,0-2.3
			c0-0.6-0.2-1.1-0.3-1.6c0-0.1-0.1-0.3-0.1-0.4c0.4-0.5,0.3-1.1,0.6-1.6c0.5-0.8,1.1-1.5,1.6-2.3c0.7-1,1.3-2.1,1.9-3.2
			c0,0,0-0.1,0.1-0.1c0.6-0.4,0.9-1.1,1.4-1.6c0.6-0.9,1.3-1.7,1.9-2.6c0.2-0.2,0.3-0.4,0.5-0.6c0.5-0.6,0.9-1.3,1.1-2.1
			c0.1-0.3,0.3-0.5,0.4-0.7c0,0,0.4-0.3,0.6-1.3c0,0,0,0,0,0c0,0,0,0,0,0c0-0.2,0.1-0.5,0.1-0.7c0,0,0-0.1,0-0.1
			c0-0.4,0-0.8-0.1-1.2c0,0,0-0.1,0-0.1c-0.4-2.5-2.9-2.9-3.8-2.8c-0.1,0-0.2,0-0.2,0c-0.5,0.2-1,0.3-1.5,0.4
			c-0.7,0.1-1.3,0.5-1.8,0.9c-0.6,0.4-1.4,0.7-1.8,1.4c-1,0.2-1.3,1.1-1.9,1.7c-0.2,0.2-0.5,0.4-0.7,0.6c-0.2,0.3-0.4,0.5-0.6,0.8
			c-0.4,0.6-0.9,1.2-1.3,1.7c-0.5,0.6-1,1.3-1.5,2c-0.3,0.5-0.8,0.9-1.2,1.3c-0.5,0.6-0.9,1.1-1.4,1.7c-0.1,0.2-0.2,0.3-0.3,0.5l0,0
			l-0.7,0.5c0,0,0,0,0,0l0,0l-0.6,0.5c-0.5-1.6-1.1-3.1-2.1-4.5c-0.1-0.1-0.2-0.3-0.3-0.4c0,0.1,0,0.1,0,0.2c0-0.1,0-0.1,0-0.2
			c-0.1-0.1-0.1-0.1-0.2-0.2c0.1,0,0.1,0.1,0.2,0.1c0-0.7,0-0.8,0-1.6c0,0-0.1,0-0.1-0.1c0.3-0.3,0.4-0.6,0.4-0.9c0,0,0.1,0,0.1,0
			c-0.4-0.3-0.6-1.3-1-1.3l0,0c0,0,0,0,0,0c-0.1,0-0.2,0.1-0.3,0.2c0.1-0.1,0.2-0.2,0.3-0.2c-0.2-0.2-0.3-0.3-0.5-0.5
			c0,0,0-0.2,0-0.3c0.1,0,0.2-0.1,0.3-0.2c0.2,0,0.3,0.1,0.5,0.1c0.3-0.4,0.5-1.2,0.9-1.1c0,0,0,0,0,0c0.1-0.4,0.1-0.8-0.2-1.1
			c-0.3-0.4-0.8-0.8-1.3-1.3c0.3-0.3,0.6-0.5,0.9-0.7c1-0.7,1-1.7-0.1-2.3c-0.8-0.4-1.6-0.7-2.4-1c-1.4-0.6-2.7-1.2-4.1-1.7
			c-1-0.4-2.1-0.6-3.2-0.7c-0.7-0.1-1.7,1-1.8,1.8c-0.1,1.5-0.9,2.9-1,4.5c-0.3-0.1-0.6,0-0.8-0.2c-2.3-1.8-5.1-2.5-7.9-2.8
			c-2.7-0.2-5.5,0-8.1,0.6c-1,0.2-1.9,0.6-2.8,1c-0.7,0.4-1.5,0.3-2.3,0.1c-2-0.5-4-1-6-1.3c-1.2-0.2-2.2,0.6-2.7,1.7
			c0.1,1.8,1,3.2,2.1,4.6c0.6,0.8,1.3,1.7,1.9,2.5c0.2,0.2,0.3,0.6,0.2,0.8c-0.1,0.6-0.4,1.3-0.6,1.8c-0.7,1.4-1.2,2.9-1.3,4.5
			c-0.1,1.3-0.2,2.5-0.3,3.8c0,0.4-0.2,0.8-0.7,0.9c-0.8,0.2-1.5,0.7-2.3,1c-1.8,0.6-2.9,2-4,3.4c-0.4,0.4-0.3,0.9,0.1,1.3
			c0.8,0.7,1.6,1.3,2.6,1.7c2,0.6,4.1,0.4,6.1,0.6c0.4,0,0.9,0.1,1.4,0.1c0.1,0.7,0.1,1.4,0.2,2.1c0.1,1.4,0.7,2.1,2.1,2.3
			c0.1,0.5,0.2,1.1,0.4,1.6c0.4,0.9,1,1.1,1.9,0.6c0.4-0.2,0.7-0.4,1.4-0.7C68,39,68,39.4,68,39.8c-0.1,0.7,0,1.3,0.6,1.6
			c0.2,0.1,0.4,0.2,0.5,0.4l0,0l1.8-0.8l-0.6,1.6c0,0.1,0,0.1-0.1,0.2c-0.1,0.4-0.4,0.8-0.6,1.2c-0.2,0.4-0.3,0.8-0.3,1.2
			c-0.1,0.5-0.4,1.1-0.7,1.6c-0.3,0.7-0.9,1.4-0.9,2.2c0,0.2-0.1,0.3-0.2,0.5c-0.3,0.3-0.4,0.6-0.3,1c0,0.1,0,0.3-0.1,0.4
			c-0.3,0.7-0.6,1.4-0.9,2c0,0.1-0.1,0.1-0.1,0.2c-0.3,1.4-1,2.6-1.4,3.9c-0.2,0.5-0.3,1-0.7,1.4c0,0-0.1,0.1-0.1,0.1
			c0,1-0.6,1.9-1,2.8c-0.5,1.3-1,2.5-1.6,3.8c-0.3,0.6-0.7,1.2-0.8,1.8c-0.1,0.5-0.7,1-0.3,1.6c-0.6,0.6-1.3,1.7-1.5,2.8
			c-0.1,0.6-0.2,1.2-0.7,1.7c-0.2,0.1-0.3,0.4-0.3,0.6c-0.1,0.7-0.3,1.3-0.7,1.9c0,0.1-0.1,0.1-0.1,0.2c0.1,0.9-0.7,1.5-0.9,2.3
			c-0.2,0.7-0.4,1.5-0.6,2.2c-0.5,1.3-1,2.6-1.4,4c-0.1,0.4-0.3,0.7-0.5,1.1c-0.1,0.1-0.2,0.2-0.2,0.3c-0.1,0.6-0.2,1.3-0.6,1.9
			c-0.1,0.1,0,0.3,0,0.4c0,0.1,0,0.3-0.1,0.3c-0.4,0.6-0.6,1.2-0.8,1.9c-0.2,1-0.5,2-1.5,2.7c-0.7,0.6-1.5,1-2.3,1.4
			c-0.8,0.4-1.7,0.6-2.6,0.8c-1.2,0.2-2.4,0.5-3.6,0.7c-0.9,0.2-1.8,0.3-2.7,0.3c-1.4,0-2.8,0.4-4.2,0.1c-1.3-0.3-2.6-0.1-3.9-0.1
			c-0.6,0-1.2,0-1.8,0c-0.6,0-1.1,0.9-0.7,1.3c0.3,0.5,0.7,0.9,1.1,1.3c0.3,0.3,0.6,0.6,1,1c0.5,0.5,1,1,1.7,1.3
			c0.3,0.2,0.6,0.5,0.9,0.6c0.4,0.2,0.8,0.4,1.2,0.5c0.8,0.2,1.6,0.2,2.4,0.4c0.2,0,0.3,0.1,0.5,0.2c-0.4,0.5-0.8,1-1.1,1.5
			c-0.2,0.4-0.5,0.8-0.2,1.3c0.3,0.5,0.5,0.6,1.1,0.6c0.7,0,1.4-0.3,2.1-0.5c1.2-0.5,2.3-1.3,3.3-2.1c0,0,0.1,0,0.1,0l-0.3,1.4
			c-0.1,0.4-0.2,0.7-0.2,1.1c0,0.4,0.4,0.7,0.9,0.7c0.6,0,1.1-0.1,1.6-0.3c1-0.5,2.1-1,3-2c0,0.7,0.1,1.2,0.1,1.8
			c1.2,0.7,1.6,0.3,2.1-0.2c0.4-0.4,0.9-0.7,1.3-1.1c0.7-0.7,1.4-1.4,2.1-2.1c0.2-0.2,0.4-0.4,0.7-0.6c0.6,0.7,1.2,1.4,1.7,2.1
			c0.4,0.5,0.9,1,1.4,1.4c0.3,0.2,0.3,0.5,0.3,0.8c0,0.6-0.1,1.1-0.4,1.7c-0.3,0.5-0.3,1.1-0.5,1.6c-0.1,0.4-0.3,0.9-0.4,1.3
			c-0.3,0.9-0.8,1.8-0.9,2.7c-0.1,0.8-0.6,1.5-0.5,2.3c0,0.2-0.2,0.5-0.3,0.8c-0.2,0.7-0.4,1.5-0.5,2.2c0,0.1-0.1,0.3-0.1,0.4
			c-0.3,0.7-0.5,1.5-0.5,2.3c0,0.2-0.1,0.4-0.1,0.6c-0.2,1,0,2.1,0.1,3.1c0,0.8,0.7,1.3,1.5,1.4c0.5,0.1,0.9,0.2,1.4,0.2
			c0.8,0.1,1.4-0.3,1.9-0.8c1.7-1.4,3.1-3.2,4.3-5.1c0.6-1,1.3-2.1,1.9-3.1c0.3-0.6,0.6-1.2,0.9-1.7c0.3-0.6,0.7-1.2,1.1-1.8
			c0.1-0.1,0.3-0.1,0.4-0.2c0,0.1,0.1,0.3,0.1,0.4c-0.1,0.4-0.2,0.8-0.3,1.2c0,0.1,0,0.3-0.1,0.4c-0.3,0.4-0.2,0.9-0.2,1.3
			c0,0.2,0,0.5-0.1,0.7c-0.4,0.6-0.3,1.3-0.4,2c-0.2,0.8-0.1,1.7-0.3,2.6c-0.1,0.3-0.1,0.6,0,1c0.1,0.2,0.1,0.5,0.1,0.7
			c0,0.5-0.4,0.8-0.1,1.4c0.2,0.3,0.2,0.9,0.2,1.3c0,0.4-0.2,0.9-0.1,1.3c0.1,1.1,0.6,2,1.5,2.6c0.4,0.2,0.8,0.3,1.2,0.2
			c1.2-0.1,2.2-0.6,3.1-1.4c0.5-0.5,0.9-1.1,1.4-1.6c0.2-0.2,0.4-0.5,0.6-0.7c0.6-0.9,1.2-1.7,1.8-2.6c0.2-0.2,0.3-0.5,0.4-0.7
			c0.6-1.2,1.3-2.3,1.9-3.5c0.1-0.2,0.3-0.5,0.3-0.8c0.1-0.7,0.6-1.3,0.9-2c0.1-0.3,0.1-0.6,0.3-0.8c0.3-0.3,0.1-0.9,0.5-1.1
			c0.1,0,0.1-0.2,0.2-0.3c0.8-2,1.6-4.1,2.4-6.1c0.5-1.3,1.1-2.6,1.6-3.9c0.1-0.3,0.4-0.4,0.7-0.4c1.2-0.1,2.5-0.3,3.7-0.5
			c0.6-0.1,1.1-0.4,1.5-0.8c0.3-0.3,0.7-0.6,1-1c0.4-0.6,0.3-1-0.1-1.6c-0.2-0.3-0.3-0.6-0.5-0.9c-0.2-0.2-0.4-0.4-0.7-0.8
			c0.8,0,1.4-0.1,2-0.1c1-0.1,1.9-0.9,1.8-1.9c-0.1-0.7-0.3-1.3-0.7-1.9c-0.1-0.2-0.2-0.3-0.2-0.5c0-0.5-0.3-1-0.5-1.4
			c-0.2-0.3-0.1-0.5,0.3-0.6c0.6-0.2,1.2-0.4,1.7-0.4c1.1,0,1.9-0.3,2.4-1.3c0.1-1.3-0.8-2.1-1.4-3.2c-0.1-0.1-0.1-0.2-0.2-0.3
			c-0.2-0.5-0.2-0.6,0.3-0.8c0.6-0.3,1.3-0.5,1.9-0.8c0.6-0.3,1.3-0.6,1.9-1c0.3-0.2,0.3-0.5,0.1-1c-0.3-1-1.1-1.6-1.6-2.6
			c0.7-0.5,1.5-0.8,2.4-0.9c0.6-0.1,1.2-0.1,1.6-0.5c-0.2-1.3-1.4-2-2-3.2c1.4-0.8,2.8-1.5,4.1-2.2c0.2-0.1,0.4-0.2,0.5-0.3
			c0.1-0.2,0.3-0.6,0.2-0.6c-0.3-0.2-0.2-0.6-0.3-0.9c-0.1-0.4-0.4-0.7-0.6-1.1c-0.1-0.2-0.3-0.5-0.5-0.7c-0.3-0.5-0.2-0.7,0.3-1
			c0.5-0.2,1-0.4,1.6-0.6c0.3-0.1,0.6-0.2,0.9-0.3c0.4-0.2,0.8-0.5,0.9-1c-0.3-0.8-1.5-1.2-1.3-2.4c0.9-0.2,1.7-0.5,2.6-0.7
			c0.3-0.1,0.6-0.3,0.9-0.5c0.5-0.3,0.7-1,0.2-1.4c-0.5-0.5-0.8-1.1-1.4-1.5c-0.4-0.2-0.4-0.6,0-0.8c0.5-0.3,1-0.4,1.5-0.7
			c0.8-0.4,1.7-0.3,2.4-0.9c-0.1-0.9-0.5-1.7-1.2-2.3c-0.6-0.5-0.5-0.8,0.2-1.2c1-0.5,2-1.1,3-1.6c0.7-0.4,0.7-1.1,0.1-1.6
			c-0.3-0.3-0.6-0.4-0.9-0.7c-0.1-0.1-0.3-0.3-0.4-0.3c0.3-0.3,0.6-0.6,0.8-0.9c0.7-0.9,1.5-1.7,2.4-2.5c1.1-0.9,2.2-1.9,3.3-2.8
			c0.8-0.7,1.7-1.2,2.5-1.9c1.3-1,2.5-2,3.7-3.2c0.7-0.7,1.5-1.3,2.2-2c0.2-0.2,0.4-0.5,0.7-0.7l0,0c0,0,0,0,0.1-0.1
			c0,0,0.1-0.1,0.1-0.1c0,0,0,0,0,0c0.6-0.7,2.4-3.1,2.5-4.7c0,0,0,0,0,0c0.1-0.3,0.1-0.6,0.1-0.9C130.7,31.9,130.5,31.5,130.6,31z
			 M87.7,12.8c0.3-1.5,0.8-2.9,1.2-4.4c0.2-0.6,0.3-1.3,0.5-2.1C90.2,7.1,91.2,7,92.1,7c0.9,0,1.4-0.5,1.7-1.4
			C94,4.8,94.2,4.1,94.5,3c1.3,0.5,2.5,1,3.8,1.5c-0.5,0.6-1,1.2-1.5,1.7c0.2,0.3,0.3,0.7,0.6,1c0.2,0.3,0.5,0.6,0.9,1
			c-0.3,0.1-0.4,0.2-0.6,0.2c-1.6,0.7-1.5,1.6-0.5,2.7c0.3,0.3,0.6,0.7,0.9,1c-1.6,1.5-1.6,1.5-1,3.1c-1.5,1.1-3,2.3-5.1,1.6
			c-0.9-0.3-1.8-0.5-2.7-0.9C87.7,15.3,87.4,14.9,87.7,12.8z M59.3,7.2c-0.3-0.4-0.5-1-0.1-1.4c2.1-0.3,4.1,0.4,6.1,1
			c-1,1.4-1.8,2.7-2.8,4.1C60.8,10.3,60.3,8.9,59.3,7.2z M69.9,39.3c0.1-0.9,0.2-1.7,0.4-2.5c-0.8-0.4-1.5-0.7-2.3-0.2
			c-0.3,0.2-0.8,0.2-1.3,0.3c0.2-0.8,0.5-1.4,0.6-1.9c0.2-1-0.5-1.5-1.4-1.1c-0.6,0.3-1.1,0.7-1.7,1.1c-0.1-1.1-0.2-2-0.2-3
			c0-0.6-0.2-0.9-0.6-1.2c-0.5-0.2-1-0.4-1.5-0.4c-1.2-0.1-2.5-0.2-3.7,0c-1.4,0.2-2.6-0.3-3.9-0.7c0.1-1,0.3-1.5,1.2-2
			c1.3-0.7,2.6-1.2,4-1.6c0.9-0.3,1.3-0.6,1.3-1.5c0.2-1.9,0.3-3.8,0.6-5.7c0.1-0.8,0.5-1.7,0.8-2.5c0.9-2.7,2-5.3,4.1-7.3
			c0.7-0.7,1.5-1.3,2.3-1.9c2.3-1.4,5-1.5,7.6-1.7c1.5-0.1,2.9,0.1,4.3,0.3c2.1,0.3,4,0.9,5.6,2.3c0.5,0.5,0.8,0.8,0.6,1.5
			c-0.3,1.3-0.7,2.7-0.9,4.1c-0.3,1.6,0.3,2.6,1.5,3.5c1.7,1.2,3.6,2.2,5.8,2c1.4-0.1,2.8-0.1,3.9-1.1c0.6-0.5,1.3-0.8,2-1.2
			c1.2,1.4,1.9,2.8,2.1,4.5c-0.4,0.1-0.6,0.2-0.9,0.3c-1,0.4-1.2,0.7-0.9,1.7c0.2,0.6,0.5,1.2,0.8,1.8c0.2,0.6,1.3,0.9,0.9,1.6
			c-0.3,0.5-1,0.7-1.6,1c-0.7,0.4-1,0.8-0.8,1.7c0.2,0.9,0.6,1.8,1,2.7c-0.7,0.2-1.5,0.3-2.3,0.5c-1.5,0.4-2.8,1.5-2.1,3.5
			c0.1,0.2,0,0.4,0,0.6c-0.8-0.2-1.5-0.4-2.2-0.6c-1.1-0.2-1.6,0-2.2,0.9c-0.4,0.6-0.6,1.3-1,1.9c-0.1,0-0.2,0-0.2-0.1
			c-1.9-2.3-2.2-1.3-3.4,0.5c-0.4,0.6-0.6,1.2-1.3,1.5c-0.1-0.1-0.2-0.1-0.3-0.1c-0.2-0.1-0.3-0.3-0.4-0.5c-1.3-1.4-2-1.4-3.2,0.2
			c-0.6,0.7-1.2,1.4-1.8,2.1c-0.7-0.3-0.5-0.8-0.6-1.3c-0.1-0.8-0.6-1.4-1.3-1.8c-0.6-0.4-1.1,0.2-1.5,0.5c-0.6,0.4-1.1,0.9-1.8,1.4
			c0-0.4,0-0.7,0-0.9c0-0.2-0.1-0.4-0.1-0.7c-0.1-1.3-0.3-1.4-1.5-1.2C71.5,38.8,70.7,39.1,69.9,39.3z M128.8,33.1
			c-0.1,0.2-0.2,0.5-0.3,0.8c-0.1,0.3-0.2,0.6-0.4,0.9c-0.2-0.1-0.4-0.1-0.5-0.2c-0.3-0.2-0.6-0.3-1,0c-0.2,0.1-0.5,0.1-0.7,0.1
			c-0.2,0-0.4,0-0.6,0.1c-0.4,0.2-0.6,0.4-0.5,0.6c0.1,0.3,0.6,0.4,0.9,0.4c0.5-0.1,1.1-0.2,1.7-0.3c-0.2,0.5-0.3,1.1-0.5,1.3
			c-0.3,0.2-0.1,0.7-0.5,0.8c-0.3,0.1-0.4,0.5-0.6,0.8c0,0-0.1,0.1-0.1,0.1c-1,0.6-1.6,1.5-2.4,2.3c-0.4,0.4-0.7,0.8-1,1.2
			c-0.3,0.3-0.7,0.6-1,0.9c0,0-0.1,0-0.1,0.1c-0.5,0.9-1.4,1.1-2.2,1.6c-0.7,0.4-1.3,1-1.9,1.4c-0.2,0.2-0.4,0.3-0.7,0.5
			c-0.3,0.3-0.7,0.4-0.9,0.9c-0.1,0.2-0.4,0.3-0.6,0.5c-0.4,0.3-0.8,0.5-1.2,0.8c-0.2,0.1-0.3,0.4-0.5,0.6c-0.1,0.1-0.3,0.3-0.4,0.4
			c-0.1,0.1-0.2,0.1-0.3,0.2c-0.3,0.7-0.8,1.1-1.3,1.5c-0.1,0.1-0.1,0.2-0.1,0.4c-0.3-0.1-0.6-0.2-0.9-0.4c-0.8-0.3-1-0.2-0.9,0.8
			c1,0.7,2.3,0.8,3.2,2c-0.6,0.4-1,0.7-1.6,1c-0.3,0.1-0.6,0.1-0.7,0.5c0,0.1-0.3,0.1-0.4,0.2c-0.4,0.2-0.8,0.3-1.2,0.6
			c-0.6,0.4-0.6,0.8-0.2,1.4c0.3,0.4,0.6,0.8,0.9,1.2c-0.1,0.3-0.2,0.5-0.3,0.8c-0.6,0.2-1.3,0.3-1.8,0.8c-0.3,0.3-0.8,0.3-1.1,0.4
			c-0.3,0.1-0.5,0.2-0.8,0.4c0.1,0.8,0.5,1.3,1,1.8c0.3,0.3,0.6,0.5,0.8,0.8c0.2,0.2,0.2,0.4-0.1,0.6c0,0-0.1,0.1-0.1,0.1
			c-1,0.3-1.9,0.9-3,0.8c-0.4,0-0.8,0-0.9,0.4c-0.1,0.3,0,0.7,0.2,1.1c0.2,0.4,0.6,0.8,0.9,1.2c0.4,0.6,0.2,0.9-0.4,1.1
			c-1.1,0.4-2.2,0.9-3.4,1.4c-0.1,0.5,0.2,0.9,0.5,1.4c0.6,0.8,1.2,1.6,1.6,2.6c-0.3,0.1-0.5,0.2-0.7,0.3c-0.8,0.2-1.4,0.7-2.1,1.2
			c-0.3,0.2-0.5,0.4-0.9,0.4c-0.3,0-0.5,0.1-0.8,0.3c-0.7,0.3-0.9,0.8-0.4,1.4c0.4,0.5,0.8,0.9,1.2,1.4c0.2,0.3,0.2,0.3,0.1,0.7
			c-0.5,0.1-1,0.2-1.5,0.5c-0.3,0.1-0.6,0.1-0.9,0.3c-0.4,0.1-0.7,0.3-1.1,0.5c-0.1,0.1-0.2,0.3-0.2,0.4c0.1,0.6,0.4,1.1,0.8,1.5
			c0.3,0.4,0.6,0.9,0.9,1.4c0.1,0.1-0.1,0.3-0.2,0.4c-0.1,0.1-0.3,0.2-0.5,0.3c-1,0.4-2,0.8-3,1.3c-0.2,0.1-0.3,0.2-0.5,0.4
			c-0.1,0.1-0.3,0.2-0.4,0.3c0.1,0.7,0.3,1.3,0.8,1.8c0.4,0.5,0.7,1.1,1,1.6c0.1,0.2,0.1,0.5,0.2,0.8c-0.8,0.2-1.5,0.3-2.2,0.5
			c-0.8,0.2-1.6,0.4-2.4,0.6c-0.6,0.2-0.8,0.4-0.5,1c0.2,0.5,0.4,0.9,0.7,1.3c0.4,0.7,0.9,1.3,1.2,2.1c0.1,0.2,0.1,0.4,0.2,0.6
			c0.1,0.7,0.1,0.7-0.6,0.8c-0.5,0.1-0.9,0.1-1.3,0.2c-0.2,0-0.3,0.2-0.6,0.4c-0.4-0.2-0.9-0.4-1.4-0.6c-0.8,0.7-0.9,0.9-0.2,1.8
			c0.4,0.5,0.8,0.9,1.2,1.4c0.1,0.2,0.3,0.4,0.4,0.6c0.3,0.5,0.1,1-0.4,1.2c-0.7,0.2-1.4,0.4-2,0.5c-0.3,0.1-0.6,0-0.9,0.1
			c-0.2,0.1-0.4,0.2-0.7,0.3c-0.6-0.3-1.4-0.3-2.1-0.1c-0.4,0.1-0.8,0.8-0.6,1.3c0.2,0.5,0,0.9-0.1,1.4c-0.4,1-0.8,2.1-1.2,3.1
			c-0.1,0.3-0.3,0.7-0.4,1.1c-0.5,1.3-1,2.7-1.6,4c-0.4,1-1,2-1.4,3c0,0.1-0.1,0.2-0.1,0.3c-0.5,1.4-1.3,2.7-2,4
			c-0.6,1.1-1.4,2.2-2,3.4c-0.2,0.4-0.5,0.9-0.7,1.3c-0.1,0.1-0.1,0.3-0.2,0.4c-0.1,0.1-0.2,0.2-0.2,0.3c0,0-1.8,2-2.7,2.1
			s-1.8-0.2-2.1-1.1c-0.3-0.9-0.1-3.9-0.1-3.9l0-1.1l0,0c0.1-1.5,0.3-3,0.4-4.5c0.1-0.7,0.3-1.4,0.5-2.2c0.4-1.5,0.7-3,0.7-4.6
			c0-0.5-0.1-1.1-0.3-1.6c-0.1-0.4-0.9-0.5-1.2-0.2c-0.2,0.2-0.4,0.3-0.4,0.5c-0.4,1.3-1.4,2.3-2,3.4c-1.2,2-2.3,4-3.4,5.9
			c-0.4,0.6-0.8,1.2-1.2,1.8c-0.4,0.6-0.8,1.2-1.2,1.9c-0.1,0.1-0.2,0.3-0.3,0.4c-0.3,0.3-0.5,0.6-0.7,0.8c-0.9,0.5-1.9,0.2-2.4-0.6
			c-0.5-0.8,0.3-3.6,0.6-4.8c0.3-1.2,3.8-12.4,4.1-13.4c0.2-1-0.6-1.8-1-2.3c-0.4-0.5-3.4-3-3.4-3s-1.6-1.2-2.2-1
			c-0.5,0.1-1,1.2-1.2,1.6c-0.5,0.6-1,1.1-1.6,1.6c-0.2,0.1-0.3,0.3-0.5,0.5c-0.2,0.2-0.5,0.2-0.6,0.4c-0.2,0.4-0.4-0.2-0.7,0
			c0.1-0.1,0.2-0.2,0.4-0.3c-0.2-0.2-0.6-0.4-0.3-0.9c0-0.1-0.2-0.3-0.3-0.4c-0.4-0.4-1.1-0.2-1.5,0.3c-0.2,0.2-0.4,0.5-0.6,0.7
			c-0.4,0.4-0.9,0.7-1.3,1c-0.4,0.4-0.8,0.4-1.3,0.2l0.1-0.9c0.1-0.1,0.3-0.1,0.4-0.2c-0.2-0.1-0.2-0.1-0.3-0.1
			c0.1-0.4,0.2-0.7,0.3-1.1c-0.1-0.2-0.3-0.3-0.4-0.5c-0.3-0.3-0.7-0.4-1.1-0.2c-0.3,0.1-0.5,0.2-0.7,0.4c-0.7,0.5-1.4,1-2.2,1.5
			c-0.3,0.2-0.7,0.4-1,0.6c-0.1,0.1-0.3,0.1-0.4,0c-0.2-0.1-0.3-0.3-0.4-0.4c0.6-0.4,1-0.8,1.3-1.4c0.1-0.2,0.1-0.5-0.2-0.6
			c-0.5-0.1-0.9-0.5-1.5-0.3c-0.5,0.1-1.1,0.1-1.6-0.2c-0.1-0.1-0.2-0.1-0.3-0.1c-0.8,0.1-1.4-0.4-2-0.7c-0.8-0.4-1.3-1.1-2-1.5
			c-0.6-0.3-0.8-0.8-0.8-1.3c1.1,0.6,11.1,0.5,11.9,0.3c0.8-0.2,5.9-1.2,6.7-1.7c0.8-0.4,2.7-2,3.5-2.9c0.8-0.9,0.9-2.1,1.1-2.8
			s1.4-3.7,1.8-4.7c0.4-1,2.3-6.7,2.7-7.4c0.4-0.8,3.8-10.2,4.2-11.2c0.4-1,5.1-13,5.9-15.1c0.7-1.8,3-7.6,3.7-9.6
			c0.1,0.1,0.2,0.3,0.4,0.4c1.6,0.2,2.4-1.2,3.7-1.6c0.3,0.8,0.6,1.6,1,2.3c0.4,0.8,1.2,1,1.7,0.5c0.8-0.9,1.7-1.7,2.5-2.6
			c0.4-0.4,0.8-0.4,1.2,0c0.2,0.2,0.3,0.4,0.4,0.6c0.5,0.7,0.7,0.8,1.4,0.2c1-0.9,1.9-1.9,2.8-2.9c0.4,0.4,0.9,0.9,1.4,1.3
			c0.7,0.7,1.4,0.6,1.7-0.3c0.2-0.4,0.2-0.9,0.3-1.3c0.1-0.5,0.3-1,0.5-1.5c0,0,0-0.1,0-0.2c0-0.2,0.2-0.5,0.6-0.4c0,0,0,0,0,0
			c0,0,0.1,0,0.1,0c1.1,0.3,2.1,0.6,3.2,0.9c0.9,0.3,1.5-0.1,1.5-1c0-0.3-0.1-0.5-0.2-0.7c-0.2-0.7-0.4-1.5-0.6-2.2
			c1.7-1,3.7-0.5,5-2l0,0c0,0,0.1-0.6-0.1-1c-0.1-0.2-0.6-0.9-0.8-1.4c-0.1-0.3-0.2-0.6-0.3-0.8c-0.1-0.4,0.3-0.6,0.7-0.8
			c0.9-0.4,1.7-0.9,1.9-1.9c0.1-0.6,0-1-0.4-1.4c-0.5-0.6-1-1.3-1.5-1.9c0.6-0.5,1.1-0.9,1.5-1.4c0.1-0.1,0.2-0.4,0.2-0.6l1.1-0.8
			l1.7-2c1-1.3,1.9-2.5,2.9-3.8c0.4-0.5,0.9-1,1.3-1.5c0,0,0,0,0.1,0c0.5-1.1,1.5-1.7,2.2-2.5c0.8-1,1.8-1.7,2.9-2.3
			c0.2-0.1,0.4-0.2,0.5-0.3c0.2-0.1,0.4-0.4,0.6-0.4c0.6-0.2,1.2-0.2,1.9-0.4c-0.1,0.5-0.2,0.8-0.5,1c-0.3,0.2-0.5,0.5-0.8,0.7
			c-0.2,0.2-0.4,0.4-0.1,0.7c0.2,0.2,0.6,0.3,0.8,0.1c0.1-0.1,0.1-0.2,0.2-0.2c0.6-0.6,1.1-1.1,1.7-1.7c0,0,0.8,0.4,1.2,1.2
			c0.1,0.3,0.2,0.6,0.2,0.8c0,0.2,0,0.4,0,0.6c-1,0.6-1.9,1.1-2.9,1.7c0.3,0.4,0.6,0.5,1,0.4c0.3-0.1,0.7-0.2,1.1-0.3l-4.4,6
			c0,0-2.8,3.8-3.2,4.4c-0.4,0.7-2.3,2.5-2.5,3.3s-0.2,1.5-0.1,1.8c0.1,0.2,0.6,2.3,0.6,2.8s-0.1,4.1,0.2,4.3c0,0.2,0,0.5,0.2,0.6
			c0.2,0.2,0.5,0.3,0.8,0.1c0.5-0.3,1-0.6,1.5-1c0.9-0.8,2-1.3,2.9-2c0.4-0.3,0.8-0.5,1.1-0.7c1.6-0.9,3.2-1.9,5-2.4
			c0.3-0.1,0.5-0.1,0.8-0.2c1-0.3,2.1-0.5,3.2-0.4c0.6,0.1,1.3,0.2,1.7,0.6c-0.4,0.7-1.1,0.9-1.8,1.1c-0.4,0.1-0.6,0.3-0.6,0.7
			c0,0.1,0,0.3,0.1,0.4c0.2,0.2,1,0.3,1.2,0.2c0.6-0.4,1.3-0.7,1.9-1.1C129.2,31.6,129.2,32.4,128.8,33.1z M111.5,24.7
			c-0.1,0.1-0.2,0.3-0.4,0.4l0-0.1C111.2,25.1,111.3,24.9,111.5,24.7z"/>
		
	</g>
</g>
</svg>
